<?xml version="1.0" encoding="UTF-8" standalone="no"?>
<!-- Created with Inkscape (http://www.inkscape.org/) -->

<svg
   xmlns:dc="http://purl.org/dc/elements/1.1/"
   xmlns:cc="http://creativecommons.org/ns#"
   xmlns:rdf="http://www.w3.org/1999/02/22-rdf-syntax-ns#"
   xmlns:svg="http://www.w3.org/2000/svg"
   xmlns="http://www.w3.org/2000/svg"
   xmlns:sodipodi="http://sodipodi.sourceforge.net/DTD/sodipodi-0.dtd"
   xmlns:inkscape="http://www.inkscape.org/namespaces/inkscape"
   id="svg10277"
   version="1.1"
   inkscape:version="0.91 r13725"
   xml:space="preserve"
   width="559.84253"
   height="612.99213"
   viewBox="0 0 559.84253 612.99213"
   sodipodi:docname="lattice_labels.svg"><metadata
     id="metadata10283"><rdf:RDF><cc:Work
         rdf:about=""><dc:format>image/svg+xml</dc:format><dc:type
           rdf:resource="http://purl.org/dc/dcmitype/StillImage" /><dc:title></dc:title></cc:Work></rdf:RDF></metadata><defs
     id="defs10281" /><sodipodi:namedview
     pagecolor="#ffffff"
     bordercolor="#666666"
     borderopacity="1"
     objecttolerance="10"
     gridtolerance="10"
     guidetolerance="10"
     inkscape:pageopacity="0"
     inkscape:pageshadow="2"
     inkscape:window-width="954"
     inkscape:window-height="1074"
     id="namedview10279"
     showgrid="false"
     inkscape:zoom="0.38499679"
     inkscape:cx="279.92126"
     inkscape:cy="306.49606"
     inkscape:window-x="0"
     inkscape:window-y="0"
     inkscape:window-maximized="0"
     inkscape:current-layer="g10285" /><g
     id="g10285"
     inkscape:groupmode="layer"
     inkscape:label="lattice_labels"
     transform="matrix(1.25,0,0,-1.25,0,612.99213)"><g
       id="g10287"><g
         id="g10289"
         transform="matrix(1,0,0,-1,0,490.39371)"><path
           d="m 81.602,57.992 c 0,10.383 -8.418,18.801 -18.801,18.801 C 52.418,76.793 44,68.375 44,57.992 44,47.609 52.418,39.195 62.801,39.195 c 10.383,0 18.801,8.414 18.801,18.797 z"
           style="fill:none;stroke:#000000;stroke-width:4.80000019;stroke-linecap:butt;stroke-linejoin:miter;stroke-miterlimit:4;stroke-dasharray:none;stroke-opacity:1"
           id="path10291"
           inkscape:connector-curvature="0" /></g><g
         id="g10293"
         transform="matrix(1,0,0,-1,0,490.39371)"><path
           d="m 241.602,57.992 c 0,10.383 -8.418,18.801 -18.801,18.801 -10.383,0 -18.801,-8.418 -18.801,-18.801 0,-10.383 8.418,-18.797 18.801,-18.797 10.383,0 18.801,8.414 18.801,18.797 z"
           style="fill:none;stroke:#000000;stroke-width:4.80000019;stroke-linecap:butt;stroke-linejoin:miter;stroke-miterlimit:4;stroke-dasharray:none;stroke-opacity:1"
           id="path10295"
           inkscape:connector-curvature="0" /></g><g
         id="g10297"
         transform="matrix(1,0,0,-1,0,490.39371)"><path
           d="m 401.602,57.992 c 0,10.383 -8.418,18.801 -18.801,18.801 -10.383,0 -18.801,-8.418 -18.801,-18.801 0,-10.383 8.418,-18.797 18.801,-18.797 10.383,0 18.801,8.414 18.801,18.797 z"
           style="fill:none;stroke:#000000;stroke-width:4.80000019;stroke-linecap:butt;stroke-linejoin:miter;stroke-miterlimit:4;stroke-dasharray:none;stroke-opacity:1"
           id="path10299"
           inkscape:connector-curvature="0" /></g><g
         id="g10301"
         transform="matrix(1,0,0,-1,0,490.39371)"><path
           d="m 81.602,217.992 c 0,10.383 -8.418,18.801 -18.801,18.801 -10.383,0 -18.801,-8.418 -18.801,-18.801 0,-10.383 8.418,-18.797 18.801,-18.797 10.383,0 18.801,8.414 18.801,18.797 z"
           style="fill:none;stroke:#000000;stroke-width:4.80000019;stroke-linecap:butt;stroke-linejoin:miter;stroke-miterlimit:4;stroke-dasharray:none;stroke-opacity:1"
           id="path10303"
           inkscape:connector-curvature="0" /></g><g
         id="g10305"
         transform="matrix(1,0,0,-1,0,490.39371)"><path
           d="m 241.602,217.992 c 0,10.383 -8.418,18.801 -18.801,18.801 -10.383,0 -18.801,-8.418 -18.801,-18.801 0,-10.383 8.418,-18.797 18.801,-18.797 10.383,0 18.801,8.414 18.801,18.797 z"
           style="fill:none;stroke:#000000;stroke-width:4.80000019;stroke-linecap:butt;stroke-linejoin:miter;stroke-miterlimit:4;stroke-dasharray:none;stroke-opacity:1"
           id="path10307"
           inkscape:connector-curvature="0" /></g><g
         id="g10309"
         transform="matrix(1,0,0,-1,0,490.39371)"><path
           d="m 401.602,217.992 c 0,10.383 -8.418,18.801 -18.801,18.801 -10.383,0 -18.801,-8.418 -18.801,-18.801 0,-10.383 8.418,-18.797 18.801,-18.797 10.383,0 18.801,8.414 18.801,18.797 z"
           style="fill:none;stroke:#000000;stroke-width:4.80000019;stroke-linecap:butt;stroke-linejoin:miter;stroke-miterlimit:4;stroke-dasharray:none;stroke-opacity:1"
           id="path10311"
           inkscape:connector-curvature="0" /></g><g
         id="g10313"
         transform="matrix(1,0,0,-1,0,490.39371)"><path
           d="m 81.602,377.992 c 0,10.383 -8.418,18.801 -18.801,18.801 -10.383,0 -18.801,-8.418 -18.801,-18.801 0,-10.383 8.418,-18.797 18.801,-18.797 10.383,0 18.801,8.414 18.801,18.797 z"
           style="fill:none;stroke:#000000;stroke-width:4.80000019;stroke-linecap:butt;stroke-linejoin:miter;stroke-miterlimit:4;stroke-dasharray:none;stroke-opacity:1"
           id="path10315"
           inkscape:connector-curvature="0" /></g><g
         id="g10317"
         transform="matrix(1,0,0,-1,0,490.39371)"><path
           d="m 241.602,377.992 c 0,10.383 -8.418,18.801 -18.801,18.801 -10.383,0 -18.801,-8.418 -18.801,-18.801 0,-10.383 8.418,-18.797 18.801,-18.797 10.383,0 18.801,8.414 18.801,18.797 z"
           style="fill:none;stroke:#000000;stroke-width:4.80000019;stroke-linecap:butt;stroke-linejoin:miter;stroke-miterlimit:4;stroke-dasharray:none;stroke-opacity:1"
           id="path10319"
           inkscape:connector-curvature="0" /></g><g
         id="g10321"
         transform="matrix(1,0,0,-1,0,490.39371)"><path
           d="m 401.602,377.992 c 0,10.383 -8.418,18.801 -18.801,18.801 -10.383,0 -18.801,-8.418 -18.801,-18.801 0,-10.383 8.418,-18.797 18.801,-18.797 10.383,0 18.801,8.414 18.801,18.797 z"
           style="fill:none;stroke:#000000;stroke-width:4.80000019;stroke-linecap:butt;stroke-linejoin:miter;stroke-miterlimit:4;stroke-dasharray:none;stroke-opacity:1"
           id="path10323"
           inkscape:connector-curvature="0" /></g><path
         d="m 187.766,211.339 0,0.078 -0.008,0.016 0,0.008 -0.008,0.019 -0.016,0.031 -0.011,0.02 -0.016,0.023 -0.008,0.02 -0.015,0.023 -0.02,0.028 -0.023,0.023 -0.02,0.027 -0.023,0.036 -0.02,0.015 -0.008,0.016 -0.015,0.019 -0.016,0.016 -0.019,0.016 -0.016,0.027 -0.035,0.035 -0.016,0.024 -0.027,0.015 -0.016,0.028 -0.051,0.05 -0.015,0.028 -0.028,0.023 -0.265,0.266 c -5.289,5.34 -6.641,13.34 -6.641,19.82 0,7.375 1.61,14.754 6.813,20.035 0.543,0.52 0.543,0.606 0.543,0.731 0,0.3 -0.153,0.418 -0.407,0.418 -0.425,0 -4.234,-2.875 -6.734,-8.25 -2.168,-4.668 -2.672,-9.371 -2.672,-12.934 0,-3.309 0.461,-8.418 2.789,-13.215 2.535,-5.211 6.192,-7.961 6.617,-7.961 0.254,0 0.407,0.121 0.407,0.426 z"
         style="fill:#000000;fill-opacity:1;fill-rule:evenodd;stroke:none"
         id="path10325"
         inkscape:connector-curvature="0" /><path
         d="m 209.672,235.058 -0.008,0.629 -0.008,0.636 -0.015,0.641 -0.028,0.629 -0.035,0.637 -0.051,0.629 -0.066,0.628 -0.086,0.622 -0.094,0.621 -0.117,0.621 -0.137,0.613 -0.16,0.609 -0.187,0.614 -0.207,0.597 -0.239,0.594 -0.125,0.297 -0.136,0.289 c -1.938,4.082 -5.426,4.762 -7.203,4.762 -2.543,0 -5.637,-1.106 -7.372,-5.051 -1.363,-2.926 -1.574,-6.234 -1.574,-9.617 0,-3.18 0.18,-6.992 1.914,-10.203 1.817,-3.43 4.914,-4.278 6.989,-4.278 l 0,0.926 c -1.649,0 -4.157,1.063 -4.915,5.129 -0.468,2.531 -0.468,6.426 -0.468,8.945 0,2.703 0,5.492 0.347,7.782 0.801,5.05 3.973,5.425 5.036,5.425 1.394,0 4.203,-0.757 5,-4.961 0.425,-2.363 0.425,-5.593 0.425,-8.246 0,-3.191 0,-6.062 -0.468,-8.777 -0.637,-4.023 -3.051,-5.297 -4.957,-5.297 l 0,-0.926 c 2.289,0 5.503,0.883 7.375,4.914 1.359,2.918 1.57,6.215 1.57,9.567 z"
         style="fill:#000000;fill-opacity:1;fill-rule:evenodd;stroke:none"
         id="path10327"
         inkscape:connector-curvature="0" /><path
         d="m 219.996,221.546 0,0.254 -0.008,0.254 -0.015,0.246 -0.02,0.238 -0.031,0.231 -0.027,0.222 -0.043,0.219 -0.043,0.207 -0.051,0.203 -0.051,0.196 -0.059,0.187 -0.066,0.18 -0.07,0.168 -0.074,0.16 -0.086,0.164 -0.086,0.144 -0.188,0.274 -0.101,0.117 -0.102,0.109 -0.109,0.114 -0.114,0.094 -0.117,0.082 -0.121,0.085 -0.125,0.071 -0.137,0.058 -0.129,0.051 -0.144,0.043 -0.145,0.031 -0.144,0.028 -0.145,0.008 -0.16,0.007 c -1.394,0 -2.246,-1.062 -2.246,-2.242 0,-1.14 0.852,-2.246 2.246,-2.246 0.508,0 1.063,0.168 1.488,0.543 0.125,0.094 0.176,0.137 0.211,0.137 0.043,0 0.086,-0.043 0.086,-0.637 0,-3.141 -1.48,-5.684 -2.882,-7.078 -0.469,-0.457 -0.469,-0.551 -0.469,-0.672 0,-0.305 0.215,-0.465 0.426,-0.465 0.468,0 3.851,3.258 3.851,8.215 z"
         style="fill:#000000;fill-opacity:1;fill-rule:evenodd;stroke:none"
         id="path10329"
         inkscape:connector-curvature="0" /><path
         d="m 249.668,235.058 0,0.629 -0.008,0.636 -0.019,0.641 -0.024,0.629 -0.043,0.637 -0.051,0.629 -0.07,0.628 -0.074,0.622 -0.102,0.621 -0.121,0.621 -0.136,0.613 -0.161,0.609 -0.179,0.614 -0.211,0.597 -0.239,0.594 -0.128,0.297 -0.137,0.289 c -1.938,4.082 -5.414,4.762 -7.203,4.762 -2.532,0 -5.629,-1.106 -7.371,-5.051 -1.352,-2.926 -1.567,-6.234 -1.567,-9.617 0,-3.18 0.172,-6.992 1.914,-10.203 1.821,-3.43 4.918,-4.278 6.992,-4.278 l 0,0.926 c -1.652,0 -4.16,1.063 -4.918,5.129 -0.464,2.531 -0.464,6.426 -0.464,8.945 0,2.703 0,5.492 0.34,7.782 0.796,5.05 3.98,5.425 5.042,5.425 1.395,0 4.2,-0.757 4.993,-4.961 0.425,-2.363 0.425,-5.593 0.425,-8.246 0,-3.191 0,-6.062 -0.468,-8.777 -0.641,-4.023 -3.055,-5.297 -4.95,-5.297 l 0,-0.926 c 2.286,0 5.5,0.883 7.372,4.914 1.351,2.918 1.566,6.215 1.566,9.567 z"
         style="fill:#000000;fill-opacity:1;fill-rule:evenodd;stroke:none"
         id="path10331"
         inkscape:connector-curvature="0" /><path
         d="m 263.641,232.089 0,0.316 -0.012,0.332 -0.008,0.332 -0.008,0.348 -0.035,0.715 -0.051,0.746 -0.066,0.785 -0.094,0.805 -0.109,0.828 -0.145,0.856 -0.164,0.867 -0.195,0.879 -0.231,0.89 -0.261,0.903 -0.289,0.91 -0.34,0.91 -0.18,0.449 -0.187,0.453 -0.204,0.449 -0.21,0.45 c -2.543,5.207 -6.184,7.961 -6.61,7.961 -0.246,0 -0.426,-0.161 -0.426,-0.418 0,-0.125 0,-0.211 0.801,-0.977 4.156,-4.184 6.574,-10.926 6.574,-19.789 0,-7.234 -1.566,-14.695 -6.832,-20.035 -0.543,-0.5 -0.543,-0.594 -0.543,-0.715 0,-0.254 0.18,-0.426 0.426,-0.426 0.426,0 4.227,2.883 6.735,8.258 2.152,4.652 2.664,9.356 2.664,12.918 z"
         style="fill:#000000;fill-opacity:1;fill-rule:evenodd;stroke:none"
         id="path10333"
         inkscape:connector-curvature="0" /><path
         d="m 13.281,213.386 0,0.066 -0.008,0.012 0,0.008 -0.007,0.015 -0.008,0.012 -0.008,0.016 -0.004,0.015 -0.016,0.02 -0.007,0.016 -0.016,0.023 -0.012,0.02 -0.023,0.023 -0.016,0.02 -0.019,0.031 -0.016,0.011 -0.008,0.016 -0.011,0.016 -0.016,0.011 -0.016,0.016 -0.011,0.024 -0.016,0.011 -0.016,0.016 -0.011,0.023 -0.024,0.012 -0.015,0.023 -0.043,0.043 -0.012,0.02 -0.024,0.023 -0.023,0.02 -0.02,0.023 -0.023,0.02 -0.027,0.031 -0.129,0.129 c -4.485,4.527 -5.629,11.309 -5.629,16.801 0,6.25 1.359,12.508 5.773,16.984 0.461,0.438 0.461,0.512 0.461,0.621 0,0.25 -0.129,0.352 -0.347,0.352 -0.36,0 -3.59,-2.438 -5.707,-6.992 -1.84,-3.957 -2.266,-7.942 -2.266,-10.965 0,-2.801 0.391,-7.133 2.367,-11.199 2.149,-4.418 5.246,-6.746 5.606,-6.746 0.218,0 0.347,0.101 0.347,0.359 z"
         style="fill:#000000;fill-opacity:1;fill-rule:evenodd;stroke:none"
         id="path10335"
         inkscape:connector-curvature="0" /><path
         d="m 38.984,230.253 0.231,0 0.117,0.008 0.055,0 0.051,0.008 0.058,0 0.051,0.004 0.058,0.007 0.051,0.008 0.051,0.016 0.051,0.012 0.043,0.015 0.051,0.016 0.043,0.015 0.035,0.02 0.043,0.023 0.035,0.028 0.035,0.023 0.039,0.035 0.027,0.028 0.028,0.035 0.015,0.023 0.008,0.02 0.016,0.023 0.004,0.024 0.015,0.019 0.008,0.024 0.008,0.027 0.008,0.023 0.004,0.028 0.007,0.027 0.008,0.031 0,0.028 0.008,0.027 0,0.094 c 0,0.722 -0.648,0.722 -1.262,0.722 l -19.425,0 c -0.606,0 -1.247,0 -1.247,-0.722 0,-0.719 0.641,-0.719 1.247,-0.719 l 19.425,0 z"
         style="fill:#000000;fill-opacity:1;fill-rule:evenodd;stroke:none"
         id="path10337"
         inkscape:connector-curvature="0" /><path
         d="m 53.812,244.987 0,0.403 -0.007,0.027 0,0.074 -0.008,0.051 -0.008,0.043 -0.008,0.035 -0.011,0.035 -0.008,0.036 -0.016,0.031 -0.012,0.027 -0.023,0.024 -0.023,0.019 -0.02,0.024 -0.023,0.019 -0.028,0.016 -0.035,0.015 -0.016,0.008 -0.019,0.004 -0.016,0 -0.023,0.008 -0.02,0.008 -0.023,0 -0.02,0.008 -0.023,0 -0.02,0.007 -0.05,0 -0.032,0.008 -0.148,0 -0.039,0.008 -0.145,0 c -2.226,-2.301 -5.383,-2.301 -6.527,-2.301 l 0,-1.117 c 0.719,0 2.84,0 4.699,0.937 l 0,-18.605 c 0,-1.297 -0.101,-1.723 -3.34,-1.723 l -1.144,0 0,-1.117 c 1.262,0.117 4.383,0.117 5.808,0.117 1.442,0 4.563,0 5.825,-0.117 l 0,1.117 -1.145,0 c -3.238,0 -3.352,0.391 -3.352,1.723 l 0,20.148 z"
         style="fill:#000000;fill-opacity:1;fill-rule:evenodd;stroke:none"
         id="path10339"
         inkscape:connector-curvature="0" /><path
         d="m 68.539,222.034 0,0.219 -0.008,0.215 -0.015,0.207 -0.02,0.203 -0.023,0.195 -0.028,0.188 -0.031,0.187 -0.035,0.172 -0.043,0.176 -0.051,0.164 -0.051,0.16 -0.05,0.149 -0.063,0.144 -0.133,0.274 -0.07,0.125 -0.078,0.113 -0.082,0.117 -0.086,0.102 -0.086,0.093 -0.094,0.094 -0.094,0.078 -0.101,0.071 -0.106,0.074 -0.101,0.058 -0.117,0.047 -0.114,0.047 -0.117,0.035 -0.121,0.028 -0.125,0.023 -0.129,0.004 -0.129,0.008 c -1.183,0 -1.902,-0.899 -1.902,-1.902 0,-0.965 0.719,-1.903 1.902,-1.903 0.434,0 0.903,0.145 1.262,0.461 0.102,0.078 0.152,0.117 0.18,0.117 0.035,0 0.074,-0.039 0.074,-0.543 0,-2.66 -1.258,-4.812 -2.445,-5.996 -0.395,-0.39 -0.395,-0.469 -0.395,-0.57 0,-0.258 0.18,-0.395 0.359,-0.395 0.395,0 3.266,2.758 3.266,6.961 z"
         style="fill:#000000;fill-opacity:1;fill-rule:evenodd;stroke:none"
         id="path10341"
         inkscape:connector-curvature="0" /><path
         d="m 93.688,233.487 0,0.536 -0.008,0.539 -0.016,0.543 -0.027,0.531 -0.028,0.543 -0.047,0.531 -0.054,0.535 -0.067,0.524 -0.086,0.527 -0.101,0.527 -0.113,0.52 -0.137,0.519 -0.152,0.516 -0.18,0.508 -0.203,0.504 -0.11,0.25 -0.113,0.246 c -1.644,3.461 -4.594,4.039 -6.105,4.039 -2.149,0 -4.774,-0.938 -6.25,-4.285 -1.145,-2.477 -1.329,-5.281 -1.329,-8.153 0,-2.695 0.145,-5.921 1.626,-8.648 1.542,-2.906 4.164,-3.625 5.917,-3.625 l 0,0.785 c -1.394,0 -3.519,0.903 -4.167,4.348 -0.391,2.148 -0.391,5.449 -0.391,7.582 0,2.293 0,4.656 0.289,6.594 0.68,4.281 3.367,4.601 4.269,4.601 1.188,0 3.559,-0.644 4.239,-4.203 0.359,-2.004 0.359,-4.742 0.359,-6.992 0,-2.703 0,-5.141 -0.398,-7.438 -0.539,-3.41 -2.586,-4.492 -4.2,-4.492 l 0,-0.785 c 1.938,0 4.665,0.75 6.254,4.164 1.149,2.473 1.329,5.27 1.329,8.109 z"
         style="fill:#000000;fill-opacity:1;fill-rule:evenodd;stroke:none"
         id="path10343"
         inkscape:connector-curvature="0" /><path
         d="m 105.531,230.972 0,0.269 -0.015,0.563 -0.008,0.293 -0.028,0.605 -0.042,0.637 -0.059,0.66 -0.078,0.688 -0.094,0.699 -0.125,0.726 -0.137,0.735 -0.164,0.742 -0.195,0.758 -0.223,0.765 -0.254,0.77 -0.281,0.773 -0.152,0.379 -0.328,0.766 -0.184,0.383 c -2.152,4.41 -5.238,6.746 -5.598,6.746 -0.218,0 -0.363,-0.137 -0.363,-0.352 0,-0.109 0,-0.183 0.68,-0.832 3.523,-3.547 5.57,-9.261 5.57,-16.773 0,-6.133 -1.324,-12.453 -5.789,-16.981 -0.461,-0.425 -0.461,-0.504 -0.461,-0.605 0,-0.215 0.145,-0.359 0.363,-0.359 0.36,0 3.582,2.441 5.707,6.996 1.825,3.945 2.258,7.929 2.258,10.949 z"
         style="fill:#000000;fill-opacity:1;fill-rule:evenodd;stroke:none"
         id="path10345"
         inkscape:connector-curvature="0" /><path
         d="m 352.48,214.987 0,0.063 -0.007,0.016 0,0.007 -0.008,0.012 -0.004,0.016 -0.008,0.015 -0.023,0.036 -0.008,0.015 -0.012,0.02 -0.015,0.023 -0.024,0.02 -0.012,0.023 -0.023,0.027 -0.016,0.016 -0.004,0.016 -0.015,0.011 -0.016,0.016 -0.012,0.016 -0.015,0.019 -0.031,0.031 -0.012,0.02 -0.024,0.016 -0.011,0.019 -0.024,0.024 -0.023,0.019 -0.012,0.024 -0.023,0.019 -0.02,0.023 -0.043,0.043 -0.031,0.028 -0.02,0.023 -0.031,0.028 -0.019,0.023 -0.032,0.027 -0.027,0.032 c -4.484,4.527 -5.629,11.308 -5.629,16.8 0,6.25 1.363,12.508 5.774,16.981 0.46,0.441 0.46,0.512 0.46,0.621 0,0.254 -0.128,0.355 -0.347,0.355 -0.36,0 -3.586,-2.437 -5.707,-6.992 -1.84,-3.957 -2.262,-7.945 -2.262,-10.965 0,-2.804 0.387,-7.136 2.363,-11.203 2.149,-4.418 5.246,-6.746 5.606,-6.746 0.219,0 0.347,0.102 0.347,0.363 z"
         style="fill:#000000;fill-opacity:1;fill-rule:evenodd;stroke:none"
         id="path10347"
         inkscape:connector-curvature="0" /><path
         d="m 365.082,246.585 0,0.254 -0.008,0.035 0,0.164 -0.008,0.031 0,0.02 -0.007,0.051 -0.008,0.043 -0.008,0.039 -0.004,0.035 -0.016,0.035 -0.015,0.027 -0.016,0.032 -0.019,0.019 -0.016,0.024 -0.027,0.019 -0.024,0.024 -0.027,0.015 -0.035,0.012 -0.032,0.016 -0.019,0 -0.023,0.007 -0.012,0.008 -0.024,0 -0.027,0.008 -0.023,0 -0.02,0.004 -0.051,0 -0.031,0.008 -0.148,0 -0.032,0.008 -0.144,0 c -2.235,-2.301 -5.383,-2.301 -6.535,-2.301 l 0,-1.117 c 0.718,0 2.839,0 4.699,0.937 l 0,-18.601 c 0,-1.297 -0.102,-1.723 -3.34,-1.723 l -1.144,0 0,-1.117 c 1.261,0.113 4.382,0.113 5.808,0.113 1.442,0 4.563,0 5.824,-0.113 l 0,1.117 -1.144,0 c -3.238,0 -3.344,0.387 -3.344,1.723 l 0,20.144 z"
         style="fill:#000000;fill-opacity:1;fill-rule:evenodd;stroke:none"
         id="path10349"
         inkscape:connector-curvature="0" /><path
         d="m 379.801,223.636 0,0.215 -0.008,0.218 -0.016,0.208 -0.015,0.203 -0.028,0.195 -0.023,0.187 -0.035,0.188 -0.035,0.172 -0.043,0.172 -0.043,0.168 -0.051,0.156 -0.059,0.152 -0.058,0.145 -0.063,0.137 -0.074,0.136 -0.07,0.121 -0.078,0.118 -0.082,0.113 -0.086,0.101 -0.086,0.094 -0.094,0.094 -0.094,0.078 -0.101,0.074 -0.102,0.071 -0.105,0.058 -0.118,0.051 -0.105,0.043 -0.125,0.035 -0.121,0.031 -0.125,0.02 -0.121,0.008 -0.137,0.007 c -1.184,0 -1.902,-0.902 -1.902,-1.902 0,-0.965 0.718,-1.902 1.902,-1.902 0.434,0 0.902,0.144 1.262,0.461 0.109,0.078 0.152,0.113 0.179,0.113 0.036,0 0.071,-0.035 0.071,-0.539 0,-2.66 -1.254,-4.817 -2.442,-5.996 -0.398,-0.391 -0.398,-0.469 -0.398,-0.571 0,-0.261 0.183,-0.398 0.363,-0.398 0.395,0 3.266,2.762 3.266,6.965 z"
         style="fill:#000000;fill-opacity:1;fill-rule:evenodd;stroke:none"
         id="path10351"
         inkscape:connector-curvature="0" /><path
         d="m 404.949,235.089 0,0.535 -0.008,0.539 -0.015,0.539 -0.02,0.535 -0.039,0.54 -0.043,0.535 -0.054,0.531 -0.067,0.527 -0.086,0.528 -0.101,0.527 -0.114,0.516 -0.14,0.519 -0.149,0.52 -0.179,0.504 -0.204,0.503 -0.109,0.254 -0.113,0.246 c -1.645,3.457 -4.594,4.036 -6.106,4.036 -2.148,0 -4.773,-0.938 -6.25,-4.282 -1.144,-2.48 -1.328,-5.285 -1.328,-8.152 0,-2.695 0.145,-5.926 1.625,-8.648 1.539,-2.907 4.164,-3.625 5.922,-3.625 l 0,0.785 c -1.398,0 -3.523,0.898 -4.164,4.343 -0.398,2.149 -0.398,5.45 -0.398,7.586 0,2.289 0,4.657 0.289,6.594 0.679,4.281 3.375,4.598 4.273,4.598 1.184,0 3.563,-0.641 4.234,-4.203 0.36,-2.004 0.36,-4.742 0.36,-6.989 0,-2.703 0,-5.14 -0.399,-7.441 -0.539,-3.41 -2.586,-4.488 -4.195,-4.488 l 0,-0.785 c 1.941,0 4.664,0.746 6.25,4.164 1.149,2.472 1.328,5.269 1.328,8.109 z"
         style="fill:#000000;fill-opacity:1;fill-rule:evenodd;stroke:none"
         id="path10353"
         inkscape:connector-curvature="0" /><path
         d="m 416.793,232.573 0,0.266 -0.016,0.563 -0.007,0.296 -0.028,0.606 -0.043,0.633 -0.058,0.664 -0.079,0.683 -0.093,0.7 -0.125,0.73 -0.137,0.734 -0.164,0.743 -0.195,0.757 -0.223,0.762 -0.246,0.774 -0.289,0.769 -0.152,0.383 -0.157,0.383 -0.176,0.383 -0.179,0.378 c -2.153,4.414 -5.238,6.75 -5.598,6.75 -0.211,0 -0.363,-0.136 -0.363,-0.355 0,-0.109 0,-0.18 0.68,-0.828 3.523,-3.547 5.57,-9.262 5.57,-16.774 0,-6.132 -1.324,-12.457 -5.789,-16.98 -0.461,-0.426 -0.461,-0.508 -0.461,-0.606 0,-0.218 0.152,-0.363 0.363,-0.363 0.36,0 3.582,2.445 5.707,7 1.824,3.942 2.258,7.93 2.258,10.949 z"
         style="fill:#000000;fill-opacity:1;fill-rule:evenodd;stroke:none"
         id="path10355"
         inkscape:connector-curvature="0" /><path
         d="m 17.281,374.187 0,0.062 -0.008,0.016 0,0.008 -0.007,0.015 -0.008,0.012 -0.008,0.016 -0.004,0.015 -0.016,0.02 -0.007,0.015 -0.016,0.02 -0.012,0.023 -0.023,0.02 -0.016,0.023 -0.019,0.028 -0.016,0.015 -0.008,0.016 -0.043,0.043 -0.011,0.019 -0.032,0.032 -0.011,0.019 -0.024,0.016 -0.015,0.023 -0.043,0.043 -0.012,0.02 -0.024,0.023 -0.023,0.02 -0.02,0.023 -0.023,0.02 -0.027,0.031 -0.071,0.07 -0.031,0.028 -0.027,0.031 c -4.485,4.527 -5.629,11.308 -5.629,16.801 0,6.25 1.359,12.507 5.773,16.984 0.461,0.437 0.461,0.512 0.461,0.617 0,0.254 -0.129,0.356 -0.347,0.356 -0.36,0 -3.59,-2.438 -5.707,-6.993 -1.84,-3.957 -2.266,-7.945 -2.266,-10.964 0,-2.805 0.391,-7.137 2.367,-11.2 2.149,-4.421 5.246,-6.75 5.606,-6.75 0.218,0 0.347,0.102 0.347,0.364 z"
         style="fill:#000000;fill-opacity:1;fill-rule:evenodd;stroke:none"
         id="path10357"
         inkscape:connector-curvature="0" /><path
         d="m 42.984,391.054 0.231,0 0.117,0.008 0.055,0 0.051,0.004 0.058,0 0.051,0.007 0.058,0.008 0.051,0.008 0.051,0.016 0.051,0.011 0.043,0.016 0.051,0.016 0.043,0.011 0.035,0.024 0.043,0.019 0.035,0.032 0.035,0.019 0.066,0.066 0.028,0.036 0.015,0.023 0.008,0.02 0.016,0.023 0.004,0.02 0.015,0.023 0.008,0.02 0.008,0.031 0.008,0.019 0.004,0.032 0.015,0.054 0,0.032 0.008,0.027 0,0.094 c 0,0.722 -0.648,0.722 -1.262,0.722 l -19.425,0 c -0.606,0 -1.247,0 -1.247,-0.722 0,-0.719 0.641,-0.719 1.247,-0.719 l 19.425,0 z"
         style="fill:#000000;fill-opacity:1;fill-rule:evenodd;stroke:none"
         id="path10359"
         inkscape:connector-curvature="0" /><path
         d="m 57.812,405.784 0,0.407 -0.007,0.027 0,0.074 -0.016,0.094 -0.008,0.035 -0.011,0.035 -0.008,0.035 -0.016,0.032 -0.012,0.027 -0.023,0.023 -0.023,0.02 -0.02,0.023 -0.023,0.02 -0.028,0.016 -0.035,0.015 -0.016,0.004 -0.019,0.008 -0.016,0 -0.023,0.008 -0.02,0.007 -0.023,0 -0.02,0.008 -0.023,0 -0.02,0.008 -0.05,0 -0.032,0.004 -0.148,0 -0.039,0.008 -0.145,0 c -2.226,-2.297 -5.383,-2.297 -6.527,-2.297 l 0,-1.117 c 0.719,0 2.84,0 4.699,0.937 l 0,-18.605 c 0,-1.297 -0.101,-1.723 -3.34,-1.723 l -1.144,0 0,-1.117 c 1.262,0.113 4.383,0.113 5.808,0.113 1.442,0 4.563,0 5.825,-0.113 l 0,1.117 -1.145,0 c -3.238,0 -3.352,0.387 -3.352,1.723 l 0,20.144 z"
         style="fill:#000000;fill-opacity:1;fill-rule:evenodd;stroke:none"
         id="path10361"
         inkscape:connector-curvature="0" /><path
         d="m 72.539,382.835 0,0.215 -0.008,0.219 -0.015,0.207 -0.02,0.203 -0.023,0.195 -0.028,0.188 -0.031,0.187 -0.035,0.172 -0.043,0.172 -0.051,0.168 -0.051,0.156 -0.05,0.152 -0.063,0.145 -0.133,0.273 -0.07,0.122 -0.078,0.117 -0.082,0.117 -0.086,0.098 -0.086,0.093 -0.094,0.094 -0.094,0.082 -0.101,0.07 -0.106,0.075 -0.101,0.054 -0.117,0.051 -0.114,0.043 -0.117,0.039 -0.121,0.027 -0.125,0.02 -0.258,0.016 c -1.183,0 -1.902,-0.903 -1.902,-1.903 0,-0.965 0.719,-1.902 1.902,-1.902 0.434,0 0.903,0.144 1.262,0.461 0.102,0.078 0.152,0.113 0.18,0.113 0.035,0 0.074,-0.035 0.074,-0.539 0,-2.66 -1.258,-4.816 -2.445,-5.996 -0.395,-0.391 -0.395,-0.469 -0.395,-0.57 0,-0.258 0.18,-0.395 0.359,-0.395 0.395,0 3.266,2.758 3.266,6.961 z"
         style="fill:#000000;fill-opacity:1;fill-rule:evenodd;stroke:none"
         id="path10363"
         inkscape:connector-curvature="0" /><path
         d="m 91.719,405.784 0,0.348 -0.008,0.027 0,0.11 -0.008,0.023 -0.008,0.047 0,0.047 -0.011,0.035 -0.008,0.035 -0.016,0.035 -0.012,0.032 -0.015,0.027 -0.016,0.023 -0.043,0.043 -0.027,0.02 -0.031,0.016 -0.028,0.015 -0.023,0.004 -0.012,0.008 -0.023,0 -0.016,0.008 -0.019,0.007 -0.024,0 -0.019,0.008 -0.024,0 -0.027,0.008 -0.051,0 -0.027,0.004 -0.145,0 -0.035,0.008 -0.145,0 c -2.234,-2.297 -5.386,-2.297 -6.531,-2.297 l 0,-1.117 c 0.719,0 2.832,0 4.692,0.937 l 0,-18.605 c 0,-1.297 -0.102,-1.723 -3.329,-1.723 l -1.156,0 0,-1.117 c 1.262,0.113 4.383,0.113 5.817,0.113 1.441,0 4.558,0 5.82,-0.113 l 0,1.117 -1.149,0 c -3.23,0 -3.343,0.387 -3.343,1.723 l 0,20.144 z"
         style="fill:#000000;fill-opacity:1;fill-rule:evenodd;stroke:none"
         id="path10365"
         inkscape:connector-curvature="0" /><path
         d="m 109.531,391.773 0,0.265 -0.015,0.563 -0.008,0.297 -0.028,0.605 -0.042,0.633 -0.059,0.664 -0.078,0.687 -0.094,0.7 -0.125,0.726 -0.137,0.735 -0.164,0.742 -0.195,0.758 -0.223,0.765 -0.254,0.77 -0.281,0.769 -0.152,0.383 -0.328,0.766 -0.184,0.383 c -2.152,4.41 -5.238,6.746 -5.598,6.746 -0.218,0 -0.363,-0.137 -0.363,-0.356 0,-0.105 0,-0.18 0.68,-0.828 3.523,-3.547 5.57,-9.262 5.57,-16.773 0,-6.133 -1.324,-12.454 -5.789,-16.981 -0.461,-0.426 -0.461,-0.504 -0.461,-0.605 0,-0.219 0.145,-0.364 0.363,-0.364 0.36,0 3.582,2.446 5.707,7 1.825,3.946 2.258,7.93 2.258,10.95 z"
         style="fill:#000000;fill-opacity:1;fill-rule:evenodd;stroke:none"
         id="path10367"
         inkscape:connector-curvature="0" /><path
         d="m 191.68,374.987 0,0.063 -0.008,0.016 0,0.007 -0.004,0.012 -0.016,0.031 -0.023,0.036 -0.008,0.015 -0.012,0.02 -0.015,0.023 -0.02,0.02 -0.015,0.023 -0.024,0.027 -0.012,0.016 -0.007,0.016 -0.016,0.011 -0.016,0.016 -0.011,0.016 -0.016,0.019 -0.016,0.016 -0.011,0.015 -0.016,0.02 -0.023,0.016 -0.012,0.019 -0.043,0.043 -0.016,0.024 -0.023,0.019 -0.02,0.023 -0.043,0.043 -0.031,0.028 -0.019,0.023 -0.11,0.11 c -4.484,4.523 -5.629,11.308 -5.629,16.8 0,6.25 1.364,12.508 5.774,16.981 0.461,0.441 0.461,0.512 0.461,0.621 0,0.254 -0.129,0.355 -0.344,0.355 -0.363,0 -3.59,-2.437 -5.711,-6.992 -1.836,-3.957 -2.262,-7.945 -2.262,-10.965 0,-2.804 0.387,-7.136 2.364,-11.203 2.148,-4.418 5.246,-6.746 5.609,-6.746 0.215,0 0.344,0.102 0.344,0.363 z"
         style="fill:#000000;fill-opacity:1;fill-rule:evenodd;stroke:none"
         id="path10369"
         inkscape:connector-curvature="0" /><path
         d="m 210.25,395.089 -0.008,0.535 -0.008,0.539 -0.015,0.539 -0.02,0.535 -0.031,0.54 -0.043,0.535 -0.055,0.531 -0.074,0.527 -0.078,0.528 -0.102,0.523 -0.117,0.52 -0.137,0.519 -0.156,0.52 -0.176,0.504 -0.199,0.503 -0.109,0.254 -0.113,0.246 c -1.645,3.457 -4.602,4.036 -6.106,4.036 -2.156,0 -4.781,-0.938 -6.25,-4.282 -1.152,-2.48 -1.336,-5.285 -1.336,-8.152 0,-2.695 0.153,-5.926 1.625,-8.648 1.543,-2.907 4.164,-3.629 5.922,-3.629 l 0,0.789 c -1.398,0 -3.523,0.898 -4.164,4.343 -0.398,2.149 -0.398,5.45 -0.398,7.586 0,2.289 0,4.657 0.296,6.594 0.676,4.281 3.368,4.598 4.266,4.598 1.184,0 3.563,-0.641 4.238,-4.203 0.364,-2.004 0.364,-4.742 0.364,-6.989 0,-2.703 0,-5.14 -0.399,-7.441 -0.539,-3.41 -2.586,-4.488 -4.203,-4.488 l 0,-0.789 c 1.941,0 4.664,0.75 6.25,4.168 1.156,2.472 1.336,5.269 1.336,8.109 z"
         style="fill:#000000;fill-opacity:1;fill-rule:evenodd;stroke:none"
         id="path10371"
         inkscape:connector-curvature="0" /><path
         d="m 219,383.636 0,0.215 -0.008,0.218 -0.015,0.208 -0.012,0.203 -0.031,0.195 -0.02,0.187 -0.039,0.188 -0.035,0.172 -0.043,0.172 -0.043,0.168 -0.051,0.156 -0.058,0.152 -0.055,0.145 -0.067,0.137 -0.07,0.136 -0.074,0.121 -0.078,0.118 -0.078,0.113 -0.09,0.101 -0.086,0.094 -0.094,0.094 -0.094,0.078 -0.101,0.074 -0.098,0.071 -0.109,0.058 -0.117,0.051 -0.106,0.043 -0.125,0.035 -0.121,0.031 -0.121,0.02 -0.125,0.008 -0.137,0.007 c -1.179,0 -1.902,-0.902 -1.902,-1.902 0,-0.965 0.723,-1.902 1.902,-1.902 0.434,0 0.903,0.144 1.262,0.461 0.109,0.078 0.152,0.113 0.18,0.113 0.035,0 0.074,-0.035 0.074,-0.539 0,-2.66 -1.254,-4.817 -2.445,-5.996 -0.395,-0.391 -0.395,-0.469 -0.395,-0.571 0,-0.261 0.18,-0.398 0.359,-0.398 0.395,0 3.266,2.762 3.266,6.965 z"
         style="fill:#000000;fill-opacity:1;fill-rule:evenodd;stroke:none"
         id="path10373"
         inkscape:connector-curvature="0" /><path
         d="m 238.18,406.585 0,0.375 -0.008,0.031 0,0.078 -0.008,0.02 0,0.051 -0.004,0.043 -0.008,0.039 -0.015,0.035 -0.008,0.035 -0.016,0.027 -0.019,0.032 -0.016,0.019 -0.019,0.024 -0.024,0.019 -0.027,0.024 -0.031,0.015 -0.028,0.012 -0.015,0.008 -0.02,0.008 -0.016,0 -0.019,0.007 -0.024,0.008 -0.019,0 -0.024,0.008 -0.023,0 -0.027,0.004 -0.051,0 -0.02,0.008 -0.152,0 -0.035,0.008 -0.145,0 c -2.226,-2.301 -5.386,-2.301 -6.531,-2.301 l 0,-1.117 c 0.719,0 2.84,0 4.692,0.937 l 0,-18.601 c 0,-1.297 -0.102,-1.723 -3.329,-1.723 l -1.156,0 0,-1.117 c 1.262,0.113 4.383,0.113 5.82,0.113 1.442,0 4.563,0 5.825,-0.113 l 0,1.117 -1.157,0 c -3.226,0 -3.343,0.387 -3.343,1.723 l 0,20.144 z"
         style="fill:#000000;fill-opacity:1;fill-rule:evenodd;stroke:none"
         id="path10375"
         inkscape:connector-curvature="0" /><path
         d="m 255.992,392.573 0,0.266 -0.015,0.563 -0.008,0.296 -0.028,0.606 -0.043,0.633 -0.058,0.664 -0.078,0.683 -0.094,0.7 -0.125,0.73 -0.137,0.734 -0.164,0.743 -0.195,0.757 -0.223,0.762 -0.246,0.774 -0.289,0.769 -0.148,0.383 -0.161,0.383 -0.171,0.383 -0.18,0.378 c -2.156,4.414 -5.242,6.75 -5.602,6.75 -0.211,0 -0.363,-0.136 -0.363,-0.355 0,-0.109 0,-0.18 0.68,-0.828 3.523,-3.547 5.57,-9.262 5.57,-16.774 0,-6.132 -1.324,-12.457 -5.785,-16.98 -0.465,-0.426 -0.465,-0.508 -0.465,-0.606 0,-0.218 0.152,-0.363 0.363,-0.363 0.36,0 3.582,2.445 5.707,7 1.825,3.942 2.258,7.93 2.258,10.949 z"
         style="fill:#000000;fill-opacity:1;fill-rule:evenodd;stroke:none"
         id="path10377"
         inkscape:connector-curvature="0" /><path
         d="m 354.082,374.987 0,0.063 -0.008,0.016 0,0.007 -0.008,0.012 -0.015,0.031 -0.008,0.012 -0.02,0.039 -0.015,0.02 -0.016,0.023 -0.019,0.02 -0.016,0.023 -0.019,0.027 -0.016,0.016 -0.008,0.016 -0.043,0.043 -0.016,0.019 -0.011,0.016 -0.016,0.015 -0.016,0.02 -0.019,0.016 -0.016,0.019 -0.019,0.024 -0.024,0.019 -0.015,0.024 -0.043,0.042 -0.02,0.024 -0.023,0.019 -0.129,0.129 -0.027,0.032 c -4.485,4.523 -5.633,11.308 -5.633,16.8 0,6.25 1.363,12.508 5.777,16.981 0.461,0.441 0.461,0.512 0.461,0.621 0,0.254 -0.133,0.355 -0.348,0.355 -0.359,0 -3.589,-2.437 -5.707,-6.992 -1.839,-3.957 -2.265,-7.945 -2.265,-10.965 0,-2.804 0.39,-7.136 2.363,-11.203 2.148,-4.418 5.25,-6.746 5.609,-6.746 0.215,0 0.348,0.102 0.348,0.363 z"
         style="fill:#000000;fill-opacity:1;fill-rule:evenodd;stroke:none"
         id="path10379"
         inkscape:connector-curvature="0" /><path
         d="m 366.68,406.585 0,0.254 -0.008,0.035 0,0.164 -0.008,0.031 0,0.02 -0.004,0.051 -0.008,0.043 -0.007,0.039 -0.008,0.035 -0.016,0.035 -0.012,0.027 -0.015,0.032 -0.024,0.019 -0.011,0.024 -0.032,0.019 -0.019,0.024 -0.028,0.015 -0.039,0.012 -0.011,0.008 -0.016,0.008 -0.023,0 -0.02,0.007 -0.016,0.008 -0.019,0 -0.031,0.008 -0.02,0 -0.023,0.004 -0.051,0 -0.027,0.008 -0.153,0 -0.027,0.008 -0.145,0 c -2.234,-2.301 -5.386,-2.301 -6.539,-2.301 l 0,-1.117 c 0.723,0 2.84,0 4.7,0.937 l 0,-18.601 c 0,-1.297 -0.102,-1.723 -3.336,-1.723 l -1.145,0 0,-1.117 c 1.258,0.113 4.379,0.113 5.809,0.113 1.441,0 4.562,0 5.824,-0.113 l 0,1.117 -1.149,0 c -3.234,0 -3.343,0.387 -3.343,1.723 l 0,20.144 z"
         style="fill:#000000;fill-opacity:1;fill-rule:evenodd;stroke:none"
         id="path10381"
         inkscape:connector-curvature="0" /><path
         d="m 381.398,383.636 0,0.215 -0.007,0.218 -0.012,0.208 -0.016,0.203 -0.027,0.195 -0.024,0.187 -0.035,0.188 -0.035,0.172 -0.043,0.172 -0.047,0.168 -0.047,0.156 -0.058,0.152 -0.059,0.145 -0.066,0.137 -0.07,0.136 -0.071,0.121 -0.082,0.118 -0.078,0.113 -0.086,0.101 -0.086,0.094 -0.094,0.094 -0.093,0.078 -0.102,0.074 -0.101,0.071 -0.11,0.058 -0.113,0.051 -0.109,0.043 -0.122,0.035 -0.125,0.031 -0.121,0.02 -0.121,0.008 -0.136,0.007 c -1.184,0 -1.907,-0.902 -1.907,-1.902 0,-0.965 0.723,-1.902 1.907,-1.902 0.429,0 0.898,0.144 1.261,0.461 0.106,0.078 0.149,0.113 0.18,0.113 0.035,0 0.07,-0.035 0.07,-0.539 0,-2.66 -1.254,-4.817 -2.441,-5.996 -0.399,-0.391 -0.399,-0.469 -0.399,-0.571 0,-0.261 0.18,-0.398 0.36,-0.398 0.398,0 3.265,2.762 3.265,6.965 z"
         style="fill:#000000;fill-opacity:1;fill-rule:evenodd;stroke:none"
         id="path10383"
         inkscape:connector-curvature="0" /><path
         d="m 400.578,406.585 0,0.375 -0.004,0.031 0,0.078 -0.008,0.02 0,0.051 -0.007,0.043 -0.008,0.039 -0.016,0.035 -0.004,0.035 -0.015,0.027 -0.024,0.032 -0.012,0.019 -0.042,0.043 -0.032,0.024 -0.027,0.015 -0.031,0.012 -0.012,0.008 -0.024,0.008 -0.011,0 -0.047,0.015 -0.02,0 -0.023,0.008 -0.02,0 -0.031,0.004 -0.047,0 -0.023,0.008 -0.152,0 -0.036,0.008 -0.144,0 c -2.227,-2.301 -5.383,-2.301 -6.531,-2.301 l 0,-1.117 c 0.722,0 2.839,0 4.695,0.937 l 0,-18.601 c 0,-1.297 -0.102,-1.723 -3.332,-1.723 l -1.152,0 0,-1.117 c 1.261,0.113 4.382,0.113 5.816,0.113 1.441,0 4.562,0 5.824,-0.113 l 0,1.117 -1.152,0 c -3.231,0 -3.348,0.387 -3.348,1.723 l 0,20.144 z"
         style="fill:#000000;fill-opacity:1;fill-rule:evenodd;stroke:none"
         id="path10385"
         inkscape:connector-curvature="0" /><path
         d="m 418.391,392.573 0,0.266 -0.016,0.563 -0.004,0.296 -0.031,0.606 -0.043,0.633 -0.059,0.664 -0.078,0.683 -0.094,0.7 -0.121,0.73 -0.136,0.734 -0.168,0.743 -0.196,0.757 -0.222,0.762 -0.246,0.774 -0.286,0.769 -0.152,0.383 -0.16,0.383 -0.172,0.383 -0.18,0.378 c -2.156,4.414 -5.242,6.75 -5.601,6.75 -0.207,0 -0.36,-0.136 -0.36,-0.355 0,-0.109 0,-0.18 0.676,-0.828 3.528,-3.547 5.574,-9.262 5.574,-16.774 0,-6.132 -1.328,-12.457 -5.789,-16.98 -0.461,-0.426 -0.461,-0.508 -0.461,-0.606 0,-0.218 0.153,-0.363 0.36,-0.363 0.359,0 3.582,2.445 5.711,7 1.82,3.942 2.254,7.93 2.254,10.949 z"
         style="fill:#000000;fill-opacity:1;fill-rule:evenodd;stroke:none"
         id="path10387"
         inkscape:connector-curvature="0" /><path
         d="m 7.68,54.187 0,0.062 -0.008,0.016 0,0.008 -0.004,0.015 -0.008,0.012 -0.015,0.031 -0.016,0.02 -0.008,0.015 -0.012,0.02 -0.015,0.023 -0.02,0.02 L 7.559,54.452 7.535,54.48 7.523,54.495 7.516,54.511 7.5,54.523 7.484,54.538 7.473,54.554 7.457,54.573 7.441,54.589 7.43,54.605 7.414,54.624 7.391,54.64 7.379,54.663 7.355,54.683 7.336,54.706 7.32,54.726 7.184,54.862 7.156,54.894 7.133,54.913 7.074,54.972 C 2.59,59.499 1.445,66.28 1.445,71.773 c 0,6.25 1.364,12.507 5.774,16.984 0.461,0.437 0.461,0.512 0.461,0.617 0,0.254 -0.129,0.356 -0.344,0.356 -0.363,0 -3.59,-2.438 -5.711,-6.993 -1.836,-3.957 -2.262,-7.945 -2.262,-10.964 0,-2.805 0.387,-7.137 2.364,-11.2 2.148,-4.421 5.246,-6.75 5.609,-6.75 0.215,0 0.344,0.102 0.344,0.364 z"
         style="fill:#000000;fill-opacity:1;fill-rule:evenodd;stroke:none"
         id="path10389"
         inkscape:connector-curvature="0" /><path
         d="m 33.383,71.054 0.234,0 0.113,0.008 0.059,0 0.051,0.004 0.055,0 0.05,0.007 0.059,0.008 0.051,0.008 0.05,0.016 0.051,0.011 0.043,0.016 0.051,0.016 0.043,0.011 0.035,0.024 0.043,0.019 0.039,0.032 0.035,0.019 0.035,0.039 0.028,0.027 0.031,0.036 0.012,0.023 0.008,0.02 0.015,0.023 0.008,0.02 0.012,0.023 0.008,0.02 0.007,0.031 0.008,0.019 0.008,0.032 0.016,0.054 0,0.032 0.004,0.027 0,0.094 c 0,0.722 -0.649,0.722 -1.262,0.722 l -19.426,0 c -0.605,0 -1.246,0 -1.246,-0.722 0,-0.719 0.641,-0.719 1.246,-0.719 l 19.426,0 z"
         style="fill:#000000;fill-opacity:1;fill-rule:evenodd;stroke:none"
         id="path10391"
         inkscape:connector-curvature="0" /><path
         d="m 48.211,85.784 0,0.407 -0.008,0.027 0,0.074 -0.004,0.047 -0.008,0.047 -0.007,0.035 -0.016,0.035 -0.008,0.035 -0.012,0.032 -0.015,0.027 -0.086,0.086 -0.031,0.016 -0.036,0.015 -0.015,0.004 -0.02,0.008 -0.015,0 -0.02,0.008 -0.023,0.007 -0.02,0 -0.023,0.008 -0.02,0 -0.023,0.008 -0.051,0 -0.027,0.004 -0.153,0 -0.035,0.008 -0.144,0 c -2.227,-2.297 -5.387,-2.297 -6.532,-2.297 l 0,-1.117 c 0.723,0 2.84,0 4.7,0.937 l 0,-18.605 c 0,-1.297 -0.102,-1.723 -3.336,-1.723 l -1.149,0 0,-1.117 c 1.262,0.113 4.383,0.113 5.813,0.113 1.441,0 4.562,0 5.824,-0.113 l 0,1.117 -1.149,0 c -3.234,0 -3.351,0.387 -3.351,1.723 l 0,20.144 z"
         style="fill:#000000;fill-opacity:1;fill-rule:evenodd;stroke:none"
         id="path10393"
         inkscape:connector-curvature="0" /><path
         d="m 62.938,62.835 0,0.215 -0.008,0.219 -0.012,0.207 -0.023,0.203 -0.024,0.195 -0.055,0.375 -0.039,0.172 -0.043,0.172 -0.046,0.168 -0.051,0.156 -0.051,0.152 -0.066,0.145 -0.067,0.137 -0.062,0.136 -0.075,0.122 -0.156,0.234 -0.086,0.098 -0.086,0.093 -0.093,0.094 -0.094,0.082 -0.102,0.07 -0.109,0.075 -0.102,0.054 -0.113,0.051 -0.117,0.043 -0.113,0.039 -0.125,0.027 -0.122,0.02 -0.128,0.008 -0.133,0.008 c -1.18,0 -1.903,-0.903 -1.903,-1.903 0,-0.965 0.723,-1.902 1.903,-1.902 0.433,0 0.902,0.144 1.261,0.461 0.102,0.078 0.153,0.113 0.184,0.113 0.035,0 0.07,-0.035 0.07,-0.539 0,-2.66 -1.254,-4.816 -2.445,-5.996 -0.395,-0.391 -0.395,-0.469 -0.395,-0.57 0,-0.258 0.18,-0.395 0.36,-0.395 0.398,0 3.266,2.758 3.266,6.961 z"
         style="fill:#000000;fill-opacity:1;fill-rule:evenodd;stroke:none"
         id="path10395"
         inkscape:connector-curvature="0" /><path
         d="m 95.23,71.054 0.223,0 0.117,0.008 0.055,0 0.059,0.004 0.05,0 0.059,0.007 0.102,0.016 0.05,0.016 0.051,0.011 0.094,0.032 0.043,0.011 0.043,0.024 0.035,0.019 0.043,0.032 0.035,0.019 0.031,0.039 0.028,0.027 0.027,0.036 0.016,0.023 0.015,0.02 0.008,0.023 0.012,0.02 0.008,0.023 0.007,0.02 0.016,0.031 0.004,0.019 0.008,0.032 0,0.027 0.008,0.027 0.007,0.032 0,0.058 0.008,0.035 0,0.028 c 0,0.722 -0.656,0.722 -1.262,0.722 l -19.433,0 c -0.606,0 -1.246,0 -1.246,-0.722 0,-0.719 0.64,-0.719 1.246,-0.719 l 19.433,0 z"
         style="fill:#000000;fill-opacity:1;fill-rule:evenodd;stroke:none"
         id="path10397"
         inkscape:connector-curvature="0" /><path
         d="m 110.059,85.784 0,0.254 -0.008,0.035 0,0.168 -0.008,0.028 0,0.023 -0.016,0.094 -0.007,0.035 -0.004,0.035 -0.016,0.035 -0.016,0.032 -0.011,0.027 -0.024,0.023 -0.015,0.02 -0.028,0.023 -0.023,0.02 -0.028,0.016 -0.035,0.015 -0.015,0.004 -0.016,0.008 -0.019,0 -0.024,0.008 -0.012,0.007 -0.023,0 -0.02,0.008 -0.031,0 -0.019,0.008 -0.051,0 -0.031,0.004 -0.149,0 -0.031,0.008 -0.145,0 C 107,84.425 103.852,84.425 102.699,84.425 l 0,-1.117 c 0.719,0 2.84,0 4.699,0.937 l 0,-18.605 c 0,-1.297 -0.101,-1.723 -3.332,-1.723 l -1.152,0 0,-1.117 c 1.262,0.113 4.383,0.113 5.809,0.113 1.441,0 4.562,0 5.824,-0.113 l 0,1.117 -1.145,0 c -3.238,0 -3.343,0.387 -3.343,1.723 l 0,20.144 z"
         style="fill:#000000;fill-opacity:1;fill-rule:evenodd;stroke:none"
         id="path10399"
         inkscape:connector-curvature="0" /><path
         d="m 127.859,71.773 0,0.546 -0.004,0.282 -0.007,0.297 -0.032,0.605 -0.043,0.633 -0.062,0.664 -0.074,0.687 -0.102,0.7 -0.113,0.726 -0.145,0.735 -0.164,0.742 -0.187,0.758 -0.227,0.765 -0.25,0.77 -0.281,0.769 -0.152,0.383 -0.164,0.383 -0.176,0.383 -0.18,0.383 c -2.148,4.41 -5.23,6.746 -5.594,6.746 -0.214,0 -0.359,-0.137 -0.359,-0.356 0,-0.105 0,-0.18 0.672,-0.828 3.531,-3.547 5.578,-9.262 5.578,-16.773 0,-6.133 -1.328,-12.454 -5.789,-16.981 -0.461,-0.426 -0.461,-0.504 -0.461,-0.605 0,-0.219 0.145,-0.364 0.359,-0.364 0.364,0 3.582,2.446 5.711,7 1.825,3.946 2.246,7.93 2.246,10.95 z"
         style="fill:#000000;fill-opacity:1;fill-rule:evenodd;stroke:none"
         id="path10401"
         inkscape:connector-curvature="0" /><path
         d="m 190.082,49.386 0,0.066 -0.008,0.012 0,0.008 -0.008,0.015 -0.007,0.012 -0.016,0.031 -0.012,0.02 -0.008,0.016 -0.015,0.023 -0.016,0.02 -0.019,0.023 -0.016,0.02 -0.019,0.031 -0.016,0.011 -0.008,0.016 -0.012,0.016 -0.015,0.011 -0.016,0.016 -0.016,0.024 -0.027,0.027 -0.016,0.019 -0.019,0.016 -0.016,0.023 -0.043,0.043 -0.015,0.02 -0.02,0.023 -0.023,0.02 -0.02,0.023 -0.023,0.02 -0.028,0.031 -0.023,0.02 -0.027,0.031 -0.024,0.019 -0.027,0.032 -0.027,0.027 c -4.485,4.527 -5.633,11.309 -5.633,16.801 0,6.25 1.363,12.508 5.777,16.984 0.461,0.438 0.461,0.512 0.461,0.621 0,0.25 -0.133,0.352 -0.348,0.352 -0.359,0 -3.589,-2.438 -5.707,-6.992 -1.839,-3.957 -2.265,-7.942 -2.265,-10.965 0,-2.801 0.39,-7.133 2.363,-11.199 2.148,-4.418 5.25,-6.746 5.609,-6.746 0.215,0 0.348,0.101 0.348,0.359 z"
         style="fill:#000000;fill-opacity:1;fill-rule:evenodd;stroke:none"
         id="path10403"
         inkscape:connector-curvature="0" /><path
         d="m 208.648,69.487 -0.007,0.536 -0.008,0.539 -0.012,0.543 -0.023,0.531 -0.028,0.543 -0.043,0.531 -0.058,0.535 -0.074,0.524 -0.079,0.527 -0.101,0.527 -0.113,0.52 -0.137,0.519 -0.16,0.516 -0.172,0.508 -0.203,0.504 -0.106,0.25 -0.117,0.246 c -1.645,3.461 -4.598,4.035 -6.105,4.035 -2.157,0 -4.778,-0.934 -6.25,-4.281 -1.153,-2.477 -1.332,-5.281 -1.332,-8.153 0,-2.695 0.152,-5.921 1.621,-8.648 1.543,-2.906 4.168,-3.625 5.925,-3.625 l 0,0.785 c -1.398,0 -3.527,0.903 -4.168,4.348 -0.394,2.148 -0.394,5.449 -0.394,7.582 0,2.293 0,4.656 0.293,6.594 0.68,4.281 3.367,4.601 4.269,4.601 1.18,0 3.559,-0.644 4.239,-4.203 0.359,-2.004 0.359,-4.742 0.359,-6.992 0,-2.703 0,-5.141 -0.394,-7.438 -0.543,-3.41 -2.59,-4.492 -4.204,-4.492 l 0,-0.785 c 1.938,0 4.664,0.75 6.25,4.164 1.153,2.473 1.332,5.27 1.332,8.109 z"
         style="fill:#000000;fill-opacity:1;fill-rule:evenodd;stroke:none"
         id="path10405"
         inkscape:connector-curvature="0" /><path
         d="m 217.398,58.034 0,0.219 -0.007,0.215 -0.012,0.207 -0.016,0.203 -0.027,0.195 -0.024,0.188 -0.035,0.187 -0.035,0.172 -0.043,0.176 -0.047,0.164 -0.047,0.16 -0.058,0.149 -0.059,0.144 -0.066,0.137 -0.07,0.137 -0.071,0.125 -0.082,0.113 -0.078,0.117 -0.086,0.102 -0.086,0.093 -0.094,0.094 -0.093,0.078 -0.102,0.071 -0.101,0.074 -0.11,0.058 -0.113,0.047 -0.109,0.047 -0.122,0.035 -0.125,0.028 -0.121,0.023 -0.121,0.004 -0.136,0.008 c -1.184,0 -1.907,-0.899 -1.907,-1.902 0,-0.965 0.723,-1.903 1.907,-1.903 0.429,0 0.898,0.145 1.261,0.461 0.106,0.078 0.149,0.117 0.18,0.117 0.035,0 0.07,-0.039 0.07,-0.543 0,-2.66 -1.254,-4.812 -2.441,-5.996 -0.399,-0.39 -0.399,-0.469 -0.399,-0.57 0,-0.258 0.18,-0.395 0.36,-0.395 0.398,0 3.265,2.758 3.265,6.961 z"
         style="fill:#000000;fill-opacity:1;fill-rule:evenodd;stroke:none"
         id="path10407"
         inkscape:connector-curvature="0" /><path
         d="m 249.691,66.253 0.231,0 0.109,0.008 0.059,0 0.055,0.008 0.05,0 0.059,0.004 0.101,0.015 0.051,0.016 0.051,0.012 0.051,0.015 0.086,0.031 0.043,0.02 0.043,0.023 0.035,0.028 0.035,0.023 0.031,0.035 0.035,0.028 0.02,0.035 0.016,0.023 0.015,0.02 0.008,0.023 0.012,0.024 0.008,0.019 0.015,0.024 0.008,0.027 0.008,0.023 0.004,0.028 0.008,0.027 0,0.031 0.007,0.028 0,0.027 0.008,0.031 0,0.063 c 0,0.722 -0.656,0.722 -1.262,0.722 l -19.425,0 c -0.614,0 -1.254,0 -1.254,-0.722 0,-0.719 0.64,-0.719 1.254,-0.719 l 19.425,0 z"
         style="fill:#000000;fill-opacity:1;fill-rule:evenodd;stroke:none"
         id="path10409"
         inkscape:connector-curvature="0" /><path
         d="m 264.52,80.987 0,0.344 -0.008,0.031 0,0.106 -0.008,0.023 -0.008,0.051 0,0.043 -0.012,0.035 -0.007,0.035 -0.016,0.036 -0.016,0.031 -0.011,0.027 -0.016,0.024 -0.023,0.019 -0.02,0.024 -0.031,0.019 -0.055,0.031 -0.023,0.008 -0.016,0.004 -0.02,0 -0.015,0.008 -0.02,0.008 -0.023,0 -0.02,0.008 -0.023,0 -0.027,0.007 -0.051,0 -0.031,0.008 -0.141,0 -0.039,0.004 -0.145,0 c -2.234,-2.297 -5.383,-2.297 -6.527,-2.297 l 0,-1.117 c 0.719,0 2.832,0 4.691,0.937 l 0,-18.605 c 0,-1.297 -0.101,-1.723 -3.332,-1.723 l -1.152,0 0,-1.117 c 1.262,0.117 4.383,0.117 5.816,0.117 1.442,0 4.555,0 5.817,-0.117 l 0,1.117 -1.145,0 c -3.23,0 -3.343,0.391 -3.343,1.723 l 0,20.148 z"
         style="fill:#000000;fill-opacity:1;fill-rule:evenodd;stroke:none"
         id="path10411"
         inkscape:connector-curvature="0" /><path
         d="m 282.328,66.972 0,0.269 -0.004,0.282 -0.008,0.281 -0.007,0.293 -0.028,0.605 -0.047,0.637 -0.054,0.66 -0.082,0.688 -0.094,0.699 -0.121,0.726 -0.137,0.735 -0.164,0.742 -0.195,0.758 -0.223,0.765 -0.254,0.77 -0.281,0.773 -0.152,0.379 -0.165,0.383 -0.167,0.383 -0.18,0.383 c -2.156,4.41 -5.238,6.746 -5.602,6.746 -0.215,0 -0.359,-0.137 -0.359,-0.352 0,-0.109 0,-0.183 0.68,-0.832 3.523,-3.547 5.57,-9.261 5.57,-16.773 0,-6.133 -1.328,-12.453 -5.789,-16.981 -0.461,-0.425 -0.461,-0.504 -0.461,-0.605 0,-0.215 0.144,-0.359 0.359,-0.359 0.364,0 3.586,2.441 5.711,6.996 1.824,3.945 2.254,7.929 2.254,10.949 z"
         style="fill:#000000;fill-opacity:1;fill-rule:evenodd;stroke:none"
         id="path10413"
         inkscape:connector-curvature="0" /><path
         d="m 351.68,53.386 0,0.066 -0.008,0.012 0,0.008 -0.004,0.015 -0.008,0.012 -0.015,0.031 -0.016,0.02 -0.02,0.039 -0.015,0.02 -0.02,0.023 -0.015,0.02 -0.024,0.031 -0.012,0.011 -0.007,0.016 -0.016,0.016 -0.016,0.011 -0.011,0.016 -0.016,0.024 -0.016,0.011 -0.011,0.016 -0.016,0.019 -0.023,0.016 -0.012,0.023 -0.024,0.02 -0.019,0.023 -0.016,0.02 -0.136,0.137 -0.028,0.031 -0.023,0.019 -0.028,0.032 -0.031,0.027 c -4.484,4.527 -5.629,11.309 -5.629,16.801 0,6.25 1.364,12.508 5.774,16.984 0.461,0.438 0.461,0.512 0.461,0.621 0,0.25 -0.129,0.352 -0.344,0.352 -0.363,0 -3.59,-2.438 -5.711,-6.992 -1.836,-3.957 -2.262,-7.942 -2.262,-10.965 0,-2.801 0.387,-7.133 2.364,-11.199 2.148,-4.418 5.246,-6.746 5.609,-6.746 0.215,0 0.344,0.101 0.344,0.359 z"
         style="fill:#000000;fill-opacity:1;fill-rule:evenodd;stroke:none"
         id="path10415"
         inkscape:connector-curvature="0" /><path
         d="m 364.281,84.987 0,0.25 -0.008,0.036 0,0.168 -0.007,0.027 0,0.023 -0.008,0.051 -0.008,0.043 -0.004,0.035 -0.008,0.035 -0.015,0.036 -0.016,0.031 -0.012,0.027 -0.023,0.024 -0.016,0.019 -0.027,0.024 -0.024,0.019 -0.027,0.016 -0.035,0.015 -0.016,0.008 -0.011,0.004 -0.024,0 -0.023,0.008 -0.012,0.008 -0.023,0 -0.028,0.008 -0.023,0 -0.02,0.007 -0.051,0 -0.031,0.008 -0.148,0 -0.031,0.004 -0.145,0 c -2.234,-2.297 -5.383,-2.297 -6.535,-2.297 l 0,-1.117 c 0.719,0 2.84,0 4.699,0.937 l 0,-18.605 c 0,-1.297 -0.101,-1.723 -3.336,-1.723 l -1.148,0 0,-1.117 c 1.261,0.117 4.383,0.117 5.808,0.117 1.442,0 4.563,0 5.825,-0.117 l 0,1.117 -1.145,0 c -3.238,0 -3.344,0.391 -3.344,1.723 l 0,20.148 z"
         style="fill:#000000;fill-opacity:1;fill-rule:evenodd;stroke:none"
         id="path10417"
         inkscape:connector-curvature="0" /><path
         d="m 379,62.034 0,0.219 -0.008,0.215 -0.015,0.207 -0.012,0.203 -0.031,0.195 -0.02,0.188 -0.039,0.187 -0.035,0.172 -0.043,0.176 -0.043,0.164 -0.051,0.16 -0.058,0.149 -0.055,0.144 -0.067,0.137 -0.07,0.137 -0.074,0.125 -0.078,0.113 -0.078,0.117 -0.09,0.102 -0.086,0.093 -0.094,0.094 -0.094,0.078 -0.101,0.071 -0.098,0.074 -0.109,0.058 -0.117,0.047 -0.106,0.047 -0.125,0.035 -0.121,0.028 -0.121,0.023 -0.125,0.004 -0.137,0.008 c -1.179,0 -1.902,-0.899 -1.902,-1.902 0,-0.965 0.723,-1.903 1.902,-1.903 0.434,0 0.903,0.145 1.262,0.461 0.109,0.078 0.152,0.117 0.18,0.117 0.035,0 0.074,-0.039 0.074,-0.543 0,-2.66 -1.254,-4.812 -2.445,-5.996 -0.395,-0.39 -0.395,-0.469 -0.395,-0.57 0,-0.258 0.18,-0.395 0.359,-0.395 0.395,0 3.266,2.758 3.266,6.961 z"
         style="fill:#000000;fill-opacity:1;fill-rule:evenodd;stroke:none"
         id="path10419"
         inkscape:connector-curvature="0" /><path
         d="m 411.293,70.253 0.23,0 0.106,0.008 0.059,0 0.058,0.008 0.051,0 0.058,0.004 0.047,0.007 0.051,0.008 0.051,0.016 0.051,0.012 0.05,0.015 0.086,0.031 0.043,0.02 0.043,0.023 0.039,0.028 0.036,0.023 0.027,0.035 0.039,0.028 0.02,0.035 0.015,0.023 0.012,0.02 0.008,0.023 0.015,0.024 0.008,0.019 0.016,0.024 0.004,0.027 0.007,0.023 0.016,0.055 0,0.031 0.008,0.028 0,0.027 0.008,0.031 0,0.063 c 0,0.722 -0.657,0.722 -1.262,0.722 l -19.426,0 c -0.613,0 -1.254,0 -1.254,-0.722 0,-0.719 0.641,-0.719 1.254,-0.719 l 19.426,0 z"
         style="fill:#000000;fill-opacity:1;fill-rule:evenodd;stroke:none"
         id="path10421"
         inkscape:connector-curvature="0" /><path
         d="m 426.117,84.987 0,0.344 -0.004,0.031 0,0.106 -0.008,0.023 -0.007,0.051 0,0.043 -0.016,0.035 -0.008,0.035 -0.012,0.036 -0.015,0.031 -0.016,0.027 -0.011,0.024 -0.024,0.019 -0.023,0.024 -0.028,0.019 -0.027,0.016 -0.031,0.015 -0.02,0.008 -0.015,0.004 -0.02,0 -0.016,0.008 -0.023,0.008 -0.02,0 -0.023,0.008 -0.02,0 -0.031,0.007 -0.051,0 -0.027,0.008 -0.144,0 -0.036,0.004 -0.144,0 c -2.235,-2.297 -5.383,-2.297 -6.531,-2.297 l 0,-1.117 c 0.722,0 2.832,0 4.691,0.937 l 0,-18.605 c 0,-1.297 -0.098,-1.723 -3.328,-1.723 l -1.152,0 0,-1.117 c 1.261,0.117 4.382,0.117 5.816,0.117 1.441,0 4.555,0 5.816,-0.117 l 0,1.117 -1.144,0 c -3.231,0 -3.348,0.391 -3.348,1.723 l 0,20.148 z"
         style="fill:#000000;fill-opacity:1;fill-rule:evenodd;stroke:none"
         id="path10423"
         inkscape:connector-curvature="0" /><path
         d="m 443.93,70.972 0,0.269 -0.016,0.563 -0.004,0.293 -0.031,0.605 -0.043,0.637 -0.059,0.66 -0.078,0.688 -0.094,0.699 -0.121,0.726 -0.136,0.735 -0.168,0.742 -0.196,0.758 -0.222,0.765 -0.25,0.77 -0.282,0.773 -0.152,0.379 -0.168,0.383 -0.164,0.383 -0.18,0.383 c -2.156,4.41 -5.242,6.746 -5.601,6.746 -0.215,0 -0.36,-0.137 -0.36,-0.352 0,-0.109 0,-0.183 0.676,-0.832 3.528,-3.547 5.574,-9.261 5.574,-16.773 0,-6.133 -1.328,-12.453 -5.789,-16.981 -0.461,-0.425 -0.461,-0.504 -0.461,-0.605 0,-0.215 0.145,-0.359 0.36,-0.359 0.359,0 3.582,2.441 5.707,6.996 1.824,3.945 2.258,7.929 2.258,10.949 z"
         style="fill:#000000;fill-opacity:1;fill-rule:evenodd;stroke:none"
         id="path10425"
         inkscape:connector-curvature="0" /><path
         d="m 63.156,442.585 0,0.348 -0.008,0.027 0,0.109 -0.007,0.02 -0.008,0.051 0,0.043 -0.016,0.039 -0.008,0.035 -0.011,0.035 -0.016,0.027 -0.016,0.032 -0.011,0.019 -0.043,0.043 -0.032,0.024 -0.027,0.015 -0.031,0.012 -0.02,0.008 -0.015,0.008 -0.02,0 -0.015,0.007 -0.024,0.008 -0.019,0 -0.024,0.008 -0.019,0 -0.032,0.004 -0.046,0 -0.024,0.008 -0.152,0 -0.035,0.008 -0.145,0 c -2.227,-2.301 -5.383,-2.301 -6.531,-2.301 l 0,-1.117 c 0.722,0 2.836,0 4.695,0.937 l 0,-18.601 c 0,-1.297 -0.101,-1.723 -3.332,-1.723 l -1.152,0 0,-1.117 c 1.261,0.113 4.383,0.113 5.816,0.113 1.442,0 4.555,0 5.817,-0.113 l 0,1.117 -1.145,0 c -3.23,0 -3.344,0.387 -3.344,1.723 l 0,20.144 z"
         style="fill:#000000;fill-opacity:1;fill-rule:evenodd;stroke:none"
         id="path10427"
         inkscape:connector-curvature="0" /><path
         d="m 54.766,263.167 3.804,3.699 c 5.594,4.95 7.754,6.891 7.754,10.481 0,4.101 -3.226,6.976 -7.609,6.976 -4.067,0 -6.727,-3.316 -6.727,-6.507 0,-2.012 1.805,-2.012 1.903,-2.012 0.621,0 1.875,0.433 1.875,1.902 0,0.938 -0.641,1.875 -1.903,1.875 -0.281,0 -0.359,0 -0.461,-0.039 0.821,2.336 2.762,3.664 4.844,3.664 3.266,0 4.816,-2.918 4.816,-5.859 0,-2.871 -1.804,-5.711 -3.769,-7.938 l -6.895,-7.683 c -0.41,-0.391 -0.41,-0.461 -0.41,-1.328 l 13.328,0 1.008,6.25 -0.898,0 c -0.18,-1.079 -0.426,-2.661 -0.785,-3.2 -0.262,-0.281 -2.625,-0.281 -3.411,-0.281 l -6.464,0 z"
         style="fill:#000000;fill-opacity:1;fill-rule:evenodd;stroke:none"
         id="path10429"
         inkscape:connector-curvature="0" /><path
         d="m 62.219,113.034 0.273,0.094 0.531,0.219 0.254,0.121 0.25,0.129 0.246,0.137 0.239,0.144 0.23,0.16 0.223,0.156 0.226,0.168 0.207,0.172 0.204,0.18 0.195,0.188 0.187,0.195 0.18,0.195 0.172,0.207 0.16,0.211 0.149,0.215 0.144,0.219 0.137,0.23 0.129,0.231 0.117,0.23 0.101,0.238 0.102,0.243 0.156,0.492 0.067,0.25 0.05,0.261 0.043,0.258 0.028,0.262 0.015,0.258 0.008,0.265 c 0,2.942 -3.164,4.961 -6.609,4.961 -3.625,0 -6.352,-2.164 -6.352,-4.886 0,-1.192 0.785,-1.875 1.832,-1.875 1.11,0 1.828,0.793 1.828,1.84 0,1.785 -1.691,1.785 -2.218,1.785 1.101,1.757 3.48,2.234 4.773,2.234 1.461,0 3.445,-0.793 3.445,-4.019 0,-0.442 -0.082,-2.516 -1.011,-4.102 -1.075,-1.723 -2.297,-1.824 -3.184,-1.867 -0.297,-0.039 -1.156,-0.102 -1.414,-0.102 -0.281,-0.035 -0.539,-0.074 -0.539,-0.433 0,-0.391 0.258,-0.391 0.871,-0.391 l 1.57,0 c 2.957,0 4.282,-2.441 4.282,-5.973 0,-4.875 -2.477,-5.918 -4.063,-5.918 -1.543,0 -4.238,0.606 -5.488,2.723 1.25,-0.172 2.367,0.621 2.367,1.984 0,1.289 -0.969,2.004 -2.02,2.004 -0.851,0 -2.003,-0.5 -2.003,-2.086 0,-3.261 3.336,-5.629 7.257,-5.629 4.375,0 7.649,3.266 7.649,6.922 0,2.953 -2.27,5.743 -5.996,6.5 z"
         style="fill:#000000;fill-opacity:1;fill-rule:evenodd;stroke:none"
         id="path10431"
         inkscape:connector-curvature="0" /><path
         d="m 221.555,424.726 0,-3.121 c 0,-1.301 -0.067,-1.688 -2.727,-1.688 l -0.754,0 0,-1.117 c 1.477,0.113 3.344,0.113 4.856,0.113 1.508,0 3.41,0 4.875,-0.113 l 0,1.117 -0.75,0 c -2.66,0 -2.735,0.387 -2.735,1.688 l 0,3.121 3.598,0 0,1.109 -3.598,0 0,16.348 c 0,0.719 0,0.929 -0.566,0.929 -0.332,0 -0.434,0 -0.723,-0.441 l -11.027,-16.836 1.016,0 8.757,13.391 0,-13.391 -9.773,0 0,-1.109 9.551,0 z"
         style="fill:#000000;fill-opacity:1;fill-rule:evenodd;stroke:none"
         id="path10433"
         inkscape:connector-curvature="0" /><path
         d="m 228.727,269.214 -0.008,0.402 -0.02,0.391 -0.047,0.391 -0.054,0.382 -0.075,0.379 -0.093,0.368 -0.102,0.363 -0.121,0.359 -0.129,0.348 -0.152,0.336 -0.16,0.332 -0.172,0.316 -0.188,0.313 -0.199,0.293 -0.211,0.289 -0.223,0.273 -0.238,0.262 -0.246,0.25 -0.258,0.23 -0.269,0.227 -0.274,0.207 -0.285,0.187 -0.297,0.18 -0.304,0.16 -0.309,0.145 -0.316,0.121 -0.332,0.109 -0.333,0.094 -0.343,0.063 -0.348,0.05 -0.351,0.039 -0.364,0.004 c -1.722,0 -3.269,-0.574 -4.562,-1.824 l 0,6.992 c 0.722,-0.207 1.902,-0.461 3.051,-0.461 4.417,0 6.925,3.266 6.925,3.743 0,0.214 -0.101,0.398 -0.359,0.398 -0.035,0 -0.102,0 -0.281,-0.117 -0.723,-0.324 -2.481,-1.039 -4.887,-1.039 -1.43,0 -3.086,0.254 -4.781,1.004 -0.282,0.101 -0.36,0.101 -0.426,0.101 -0.359,0 -0.359,-0.281 -0.359,-0.851 l 0,-10.633 c 0,-0.641 0,-0.938 0.503,-0.938 0.254,0 0.321,0.117 0.461,0.325 0.399,0.578 1.731,2.515 4.637,2.515 1.867,0 2.77,-1.656 3.051,-2.297 0.582,-1.328 0.652,-2.726 0.652,-4.527 0,-1.254 0,-3.418 -0.871,-4.926 -0.851,-1.398 -2.183,-2.328 -3.836,-2.328 -2.621,0 -4.66,1.906 -5.281,4.016 0.109,-0.028 0.223,-0.063 0.621,-0.063 1.18,0 1.785,0.899 1.785,1.758 0,0.863 -0.605,1.758 -1.785,1.758 -0.512,0 -1.773,-0.25 -1.773,-1.91 0,-3.086 2.476,-6.559 6.515,-6.559 4.153,0 7.821,3.445 7.821,8 z"
         style="fill:#000000;fill-opacity:1;fill-rule:evenodd;stroke:none"
         id="path10435"
         inkscape:connector-curvature="0" /><path
         d="m 218.145,112.179 0,0.855 c 0,9.09 4.449,10.387 6.285,10.387 0.851,0 2.363,-0.215 3.148,-1.441 -0.523,0 -1.965,0 -1.965,-1.614 0,-1.109 0.864,-1.652 1.649,-1.652 0.578,0 1.652,0.324 1.652,1.723 0,2.164 -1.578,3.886 -4.555,3.886 -4.605,0 -9.453,-4.64 -9.453,-12.57 0,-9.594 4.168,-12.141 7.504,-12.141 3.988,0 7.406,3.375 7.406,8.11 0,4.555 -3.203,8.015 -7.187,8.015 l -0.035,-0.835 c 0.574,0 2.226,0 3.344,-2.227 0.64,-1.32 0.64,-3.148 0.64,-4.91 0,-1.723 0,-3.524 -0.605,-4.821 -1.082,-2.148 -2.727,-2.328 -3.563,-2.328 -2.262,0 -3.336,2.149 -3.543,2.688 -0.656,1.687 -0.656,4.562 -0.656,5.211 0,2.797 1.152,6.387 4.383,6.387 l 0.035,0.835 c -2.438,0 -3.762,-1.835 -4.484,-3.558 z"
         style="fill:#000000;fill-opacity:1;fill-rule:evenodd;stroke:none"
         id="path10437"
         inkscape:connector-curvature="0" /><path
         d="m 388.098,442.269 0.031,0.043 0.027,0.035 0.024,0.039 0.019,0.035 0.024,0.027 0.019,0.032 0.024,0.035 0.015,0.027 0.012,0.027 0.016,0.032 0.015,0.027 0.012,0.031 0.008,0.028 0.015,0.027 0.008,0.031 0.008,0.028 0.004,0.031 0.016,0.07 0,0.028 0.007,0.042 0,0.04 0.008,0.043 0,0.187 0.008,0.055 0,0.254 -8.723,0 c -4.383,0 -4.461,0.468 -4.605,1.144 l -0.887,0 -1.183,-7.387 0.886,0 c 0.117,0.579 0.442,2.84 0.903,3.266 0.242,0.215 3.054,0.215 3.515,0.215 l 7.442,0 c -0.407,-0.574 -3.231,-4.496 -4.032,-5.68 -3.23,-4.836 -4.41,-9.84 -4.41,-13.5 0,-0.359 0,-1.969 1.649,-1.969 1.66,0 1.66,1.61 1.66,1.969 l 0,1.84 c 0,1.965 0.101,3.949 0.394,5.887 0.129,0.824 0.641,3.906 2.215,6.136 l 4.856,6.825 z"
         style="fill:#000000;fill-opacity:1;fill-rule:evenodd;stroke:none"
         id="path10439"
         inkscape:connector-curvature="0" /><path
         d="m 383.695,273.394 0.239,0.133 0.238,0.121 0.23,0.136 0.446,0.274 0.211,0.144 0.207,0.145 0.203,0.144 0.195,0.153 0.188,0.156 0.179,0.152 0.18,0.164 0.164,0.161 0.168,0.171 0.152,0.168 0.141,0.172 0.144,0.172 0.133,0.184 0.121,0.179 0.114,0.188 0.109,0.187 0.102,0.192 0.086,0.195 0.078,0.195 0.074,0.204 0.062,0.199 0.059,0.203 0.043,0.211 0.039,0.207 0.02,0.215 0.015,0.218 0.008,0.223 c 0,3.309 -3.203,5.363 -6.469,5.363 l -0.027,-0.902 c 2.625,0 4.914,-1.875 4.914,-4.461 0,-2.039 -1.402,-3.762 -3.551,-5.023 l -4.457,2.867 c -1.648,1.082 -1.801,2.301 -1.801,2.914 0,2.191 2.344,3.703 4.895,3.703 l 0.027,0.902 c -3.59,0 -6.492,-2.66 -6.492,-6.004 0,-0.64 0.063,-2.265 1.57,-3.957 0.399,-0.425 1.731,-1.328 2.633,-1.933 l 0.82,-0.539 4.426,-2.797 c 1,-0.684 2.688,-1.766 2.688,-3.949 0,-2.66 -2.688,-4.528 -5.645,-4.528 -3.082,0 -5.672,2.227 -5.672,5.196 0,2.09 1.149,4.382 4.203,6.078 l -0.82,0.539 c -2.094,-1.039 -5.176,-3.055 -5.176,-6.617 0,-3.805 3.661,-6.2 7.438,-6.2 4.051,0 7.469,2.985 7.469,6.821 0,1.289 -0.399,2.91 -1.762,4.418 -0.692,0.758 -1.258,1.117 -3.559,2.543 z"
         style="fill:#000000;fill-opacity:1;fill-rule:evenodd;stroke:none"
         id="path10441"
         inkscape:connector-curvature="0" /><path
         d="m 385.777,111.816 0,-1.145 c 0,-8.406 -3.726,-10.055 -5.808,-10.055 -0.621,0 -2.559,0.078 -3.524,1.289 1.578,0 1.864,1.039 1.864,1.661 0,1.101 -0.864,1.64 -1.657,1.64 -0.57,0 -1.644,-0.316 -1.644,-1.722 0,-2.399 1.941,-3.872 4.996,-3.872 4.629,0 9.012,4.875 9.012,12.602 0,9.664 -4.137,12.109 -7.325,12.109 -1.984,0 -3.742,-0.656 -5.285,-2.265 -1.476,-1.621 -2.297,-3.133 -2.297,-5.821 0,-4.484 3.164,-8.011 7.184,-8.011 l 0.039,0.824 c -0.578,0 -2.23,0 -3.348,2.262 -0.64,1.328 -0.64,3.129 -0.64,4.886 0,1.942 0,3.625 0.75,4.961 0.972,1.785 2.336,2.262 3.597,2.262 1.645,0 2.84,-1.23 3.446,-2.84 0.425,-1.144 0.578,-3.414 0.578,-5.066 0,-2.977 -1.235,-6.465 -4.383,-6.465 l -0.039,-0.824 c 2.187,0 3.664,1.508 4.484,3.59 z"
         style="fill:#000000;fill-opacity:1;fill-rule:evenodd;stroke:none"
         id="path10443"
         inkscape:connector-curvature="0" /><path
         d="m 407.766,20.12 -0.016,-0.051 -0.004,-0.058 -0.016,-0.051 -0.007,-0.058 -0.028,-0.114 -0.031,-0.117 -0.019,-0.113 -0.032,-0.117 -0.027,-0.114 -0.027,-0.117 -0.008,-0.058 -0.031,-0.102 -0.004,-0.047 -0.016,-0.051 -0.008,-0.05 -0.015,-0.086 -0.008,-0.047 -0.004,-0.035 -0.008,-0.036 -0.008,-0.027 -0.008,-0.031 0,-0.063 c 0,-0.644 0.504,-0.972 1.032,-0.972 0.441,0 1.082,0.281 1.332,1 0.043,0.078 0.468,1.757 0.687,2.66 l 0.793,3.23 c 0.207,0.793 0.422,1.578 0.606,2.414 0.144,0.606 0.437,1.645 0.472,1.785 0.543,1.118 2.446,4.383 5.84,4.383 1.621,0 1.953,-1.324 1.953,-2.508 0,-0.898 -0.258,-1.902 -0.539,-2.984 l -1.004,-4.172 -0.718,-2.726 c -0.153,-0.719 -0.477,-1.93 -0.477,-2.11 0,-0.644 0.504,-0.972 1.043,-0.972 1.121,0 1.336,0.898 1.617,2.05 0.504,2.004 1.836,7.254 2.16,8.653 0.102,0.469 2.004,4.769 5.926,4.769 1.543,0 1.934,-1.218 1.934,-2.508 0,-2.054 -1.508,-6.14 -2.227,-8.042 -0.324,-0.868 -0.465,-1.262 -0.465,-1.985 0,-1.68 1.25,-2.937 2.942,-2.937 3.382,0 4.707,5.238 4.707,5.527 0,0.359 -0.325,0.359 -0.426,0.359 -0.359,0 -0.359,-0.109 -0.539,-0.648 -0.539,-1.902 -1.695,-4.445 -3.66,-4.445 -0.621,0 -0.875,0.359 -0.875,1.179 0,0.903 0.332,1.766 0.648,2.551 0.688,1.859 2.192,5.848 2.192,7.902 0,2.329 -1.442,3.832 -4.129,3.832 -2.696,0 -4.52,-1.57 -5.844,-3.472 -0.047,0.469 -0.145,1.687 -1.164,2.543 -0.891,0.75 -2.039,0.929 -2.938,0.929 -3.23,0 -4.988,-2.289 -5.593,-3.113 -0.18,2.047 -1.696,3.113 -3.317,3.113 -1.644,0 -2.328,-1.39 -2.66,-2.031 -0.641,-1.262 -1.109,-3.379 -1.109,-3.496 0,-0.359 0.359,-0.359 0.437,-0.359 0.363,0 0.391,0.051 0.606,0.836 0.605,2.543 1.328,4.265 2.625,4.265 0.578,0 1.117,-0.281 1.117,-1.64 0,-0.758 -0.117,-1.16 -0.578,-3.024 l -2.082,-8.293 z"
         style="fill:#000000;fill-opacity:1;fill-rule:evenodd;stroke:none"
         id="path10445"
         inkscape:connector-curvature="0" /><path
         d="m 22.164,471.319 -0.012,-0.05 -0.007,-0.059 -0.016,-0.051 -0.008,-0.058 -0.027,-0.114 -0.028,-0.117 -0.023,-0.113 -0.027,-0.117 -0.032,-0.113 -0.027,-0.118 -0.008,-0.058 -0.015,-0.047 -0.012,-0.051 -0.008,-0.051 -0.016,-0.05 -0.007,-0.051 -0.004,-0.043 -0.016,-0.086 -0.008,-0.039 -0.008,-0.035 -0.007,-0.028 -0.008,-0.031 0,-0.062 c 0,-0.641 0.508,-0.973 1.031,-0.973 0.441,0 1.082,0.281 1.336,1 0.043,0.082 0.469,1.758 0.684,2.66 l 0.793,3.23 c 0.211,0.793 0.425,1.579 0.605,2.415 0.145,0.605 0.441,1.644 0.477,1.789 0.539,1.117 2.441,4.382 5.836,4.382 1.625,0 1.957,-1.328 1.957,-2.511 0,-2.235 -1.774,-6.825 -2.344,-8.367 -0.317,-0.821 -0.356,-1.262 -0.356,-1.657 0,-1.679 1.254,-2.941 2.942,-2.941 3.383,0 4.707,5.238 4.707,5.527 0,0.36 -0.324,0.36 -0.438,0.36 -0.347,0 -0.347,-0.106 -0.527,-0.649 -0.723,-2.433 -1.902,-4.445 -3.668,-4.445 -0.613,0 -0.859,0.359 -0.859,1.18 0,0.902 0.324,1.765 0.64,2.554 0.688,1.903 2.199,5.844 2.199,7.899 0,2.406 -1.55,3.836 -4.136,3.836 -3.231,0 -4.989,-2.293 -5.594,-3.114 -0.18,2.008 -1.656,3.114 -3.316,3.114 -1.645,0 -2.329,-1.391 -2.688,-2.036 -0.578,-1.23 -1.082,-3.343 -1.082,-3.496 0,-0.359 0.359,-0.359 0.441,-0.359 0.36,0 0.387,0.051 0.606,0.836 0.605,2.547 1.324,4.269 2.621,4.269 0.715,0 1.117,-0.464 1.117,-1.644 0,-0.758 -0.113,-1.16 -0.574,-3.02 l -2.086,-8.297 z"
         style="fill:#000000;fill-opacity:1;fill-rule:evenodd;stroke:none"
         id="path10447"
         inkscape:connector-curvature="0" /></g></g></svg>