<?xml version="1.0" encoding="UTF-8" standalone="no"?>
<!-- Created with Inkscape (http://www.inkscape.org/) -->

<svg
   xmlns:dc="http://purl.org/dc/elements/1.1/"
   xmlns:cc="http://creativecommons.org/ns#"
   xmlns:rdf="http://www.w3.org/1999/02/22-rdf-syntax-ns#"
   xmlns:svg="http://www.w3.org/2000/svg"
   xmlns="http://www.w3.org/2000/svg"
   xmlns:sodipodi="http://sodipodi.sourceforge.net/DTD/sodipodi-0.dtd"
   xmlns:inkscape="http://www.inkscape.org/namespaces/inkscape"
   width="3200.4539"
   height="1087.9539"
   id="svg2"
   version="1.1"
   inkscape:version="0.91 r13725"
   sodipodi:docname="uam_logo.pdf">
  <defs
     id="defs4">
    <inkscape:path-effect
       is_visible="true"
       id="path-effect3001"
       effect="spiro" />
    <inkscape:path-effect
       effect="spiro"
       id="path-effect3882"
       is_visible="true" />
    <inkscape:path-effect
       is_visible="true"
       id="path-effect3880"
       effect="spiro" />
    <inkscape:path-effect
       is_visible="true"
       id="path-effect3874"
       effect="spiro" />
    <inkscape:path-effect
       effect="spiro"
       id="path-effect3870"
       is_visible="true" />
  </defs>
  <sodipodi:namedview
     id="base"
     pagecolor="#ffffff"
     bordercolor="#666666"
     borderopacity="1.0"
     inkscape:pageopacity="0.0"
     inkscape:pageshadow="2"
     inkscape:zoom="0.12374369"
     inkscape:cx="1495.2998"
     inkscape:cy="696.07178"
     inkscape:document-units="px"
     inkscape:current-layer="layer1"
     showgrid="false"
     inkscape:window-width="954"
     inkscape:window-height="1074"
     inkscape:window-x="0"
     inkscape:window-y="0"
     inkscape:window-maximized="0"
     fit-margin-top="0"
     fit-margin-left="0"
     fit-margin-right="0"
     fit-margin-bottom="0" />
  <metadata
     id="metadata7">
    <rdf:RDF>
      <cc:Work
         rdf:about="">
        <dc:format>image/svg+xml</dc:format>
        <dc:type
           rdf:resource="http://purl.org/dc/dcmitype/StillImage" />
        <dc:title></dc:title>
      </cc:Work>
    </rdf:RDF>
  </metadata>
  <g
     inkscape:label="Capa 1"
     inkscape:groupmode="layer"
     id="layer1"
     transform="translate(7126.3619,-362.39432)">
    <path
       style="fill:#000000"
       d="m -5510.7746,362.39516 c -1.143,-0.72783 -229.432,470.3458 -235.1196,485.16724 -1.3357,3.48074 3.6537,3.96777 41.7597,3.96777 l 43.2526,0 31.3101,-59.08434 31.3099,-59.04505 86.6623,-0.66784 86.6622,-0.66784 32.3707,57.82722 c 17.8093,31.806 33.2884,58.79129 34.4135,59.98788 1.125,1.19658 42.1839,1.34706 91.2193,0.31428 l 89.1372,-1.88567 0,-27.77435 0,-27.77435 26.0458,23.49231 c 14.3222,12.92541 27.0626,25.58916 28.3244,28.12791 2.0304,4.08684 5.8883,4.59632 33.5884,4.59632 l 31.2707,0 6.757,-22.23519 c 3.703,-12.22612 7.1011,-22.64908 7.582,-23.17803 1.6885,-1.85829 44.2739,38.45897 44.2739,41.91688 0,2.81553 7.4381,3.49634 38.1063,3.49634 l 38.1063,0 0.3928,-191.78838 c 0.2096,-105.49388 0.4886,-192.84361 0.6286,-194.10618 0.1395,-1.26258 -20.1508,-23.57203 -45.099,-49.57741 l -45.374,-47.2989 -72.7554,0.66784 -72.7947,0.66785 -8.6819,34.05992 -8.7213,34.02063 -4.8713,-6.08914 c -2.6905,-3.34664 -17.4835,-18.94765 -32.8421,-34.68848 l -27.8921,-28.63862 -71.5377,0.66784 -71.5377,0.66785 -1.2963,124.06139 -1.2571,124.06138 -60.97,-126.18276 c -33.5347,-69.39012 -61.6327,-126.58246 -62.4235,-127.08632 z m 356.9809,8.95693 c 0.05,-0.0162 0.074,-0.0136 0.1182,0 1.3974,0.43418 23.4064,21.00091 48.9096,45.68822 l 46.3954,44.90252 -10.1748,34.09921 c -13.5917,45.51802 -11.9063,41.97528 -17.8747,36.57414 -2.7738,-2.51041 -5.4408,-4.06998 -5.9319,-3.49634 -0.491,0.57363 -3.4945,11.90749 -6.6784,25.18155 -3.1841,13.27406 -6.5625,25.58525 -7.5035,27.3815 -0.9406,1.79624 -10.6305,-24.40971 -21.5673,-58.25935 -19.8194,-61.34162 -19.9367,-61.60197 -32.2527,-73.14829 l -12.3748,-11.58902 8.2891,-34.05992 c 4.4002,-18.1461 9.0886,-32.77277 10.6462,-33.27422 z m 131.0934,2.55351 -0.7072,41.28832 -0.6678,41.28833 -13.7103,0.78569 -13.6712,0.7857 -42.192,-42.07402 -42.2311,-42.03473 56.6095,0 56.5701,-0.0392 z m -240.0302,0.31428 c 10.8036,0.009 17.6345,0.11352 17.8354,0.31428 1.3979,1.39799 21.3709,75.60268 21.3709,79.39457 0,3.12642 -4.3124,3.81063 -23.7673,3.81063 l -23.7674,0 -46.1596,-41.28832 -46.1595,-41.28832 58.8878,-0.66784 c 16.1906,-0.18777 30.9564,-0.28353 41.7597,-0.275 z m -112.9044,2.74994 c 1.5691,0.52312 23.257,19.18579 48.2024,41.48474 l 45.3739,40.5812 0.039,22.35305 c 0.044,16.31518 -0.7238,21.9102 -2.8678,20.58523 -2.1282,-1.31542 -2.3503,-0.14271 -0.7464,4.28204 1.2189,3.36236 2.5867,60.12249 3.025,126.14349 l 0.7857,120.05434 -19.7603,-0.0392 -19.7603,-0.0392 -28.56,-59.35932 -28.5993,-59.32005 0,-128.85413 c 0,-94.17317 0.7818,-128.5673 2.8678,-127.87202 z m 362.4808,0.78569 c 0.04,0.006 0.08,0.0366 0.1181,0.0786 1.1925,1.32741 17.7809,18.79982 36.8493,38.81338 19.0679,20.01358 34.6491,37.44001 34.6491,38.73481 0,1.33702 -15.8888,2.35709 -36.8098,2.35709 l -36.8492,0 0,-41.13118 c 0,-21.4819 0.8247,-37.95006 1.925,-38.81338 0.037,-0.0288 0.078,-0.0458 0.1182,-0.0392 z m -222.5485,9.27122 c 1.2072,-0.17235 14.3028,12.2107 29.7387,28.16719 27.2539,28.17309 28.7906,30.32163 26.0851,36.25987 -2.6364,5.78648 -4.2869,6.28557 -19.5246,6.28557 -14.8419,0 -16.8588,-0.59233 -18.9745,-5.6963 -3.9562,-9.54455 -18.272,-62.98872 -17.4031,-64.97705 0.014,-0.0319 0.042,-0.0338 0.078,-0.0392 z m -539.8517,1.17854 c -0.1043,2.01784 2.3166,3.5883 10.8426,7.7391 24.9209,15.99212 44.5098,48.3636 44.5098,63.52352 l 0.7071,128.81485 c 0.774,140.97585 -1.9642,105.98728 -1.9642,131.95763 0,35.37622 -30.3884,75.02772 -37.3992,82.1838 -22.7054,23.17588 -45.8008,31.27114 -94.7942,31.30998 -43.3448,0.0343 -69.672,-10.95564 -96.7192,-40.34548 -17.7551,-19.293 -28.4303,-39.58432 -33.9813,-64.54493 -3.5036,-15.75408 -3.9822,-36.43042 -3.3393,-147.94654 l 0.7465,-129.60055 c 0,-20.32967 28.5419,-47.08176 50.9917,-55.98083 6.1885,-2.36341 11.2746,-5.31385 11.2746,-6.52128 l -189.117,0.11779 c -0.7794,1.26115 2.2655,3.56684 6.7964,5.14631 19.3953,6.76125 36.7629,24.38069 45.2953,45.92393 2.8115,7.09874 3.7928,40.37885 4.8713,165.114 1.3201,152.67342 1.4727,156.49629 6.757,167.66752 17.6668,37.34772 59.066,67.17912 101.9441,73.46257 21.268,3.11666 81.4241,7.49284 127.597,0.0392 9.0823,-1.46612 25.0733,-6.76489 35.5527,-11.78544 31.3398,-15.01436 74.2876,-48.28344 74.2876,-114.86875 0,-6.21414 0.9622,-26.80124 1.8463,-123.39355 l 1.3751,-138.2432 c 0,-14.21266 25.9681,-54.37218 45.0989,-62.61996 8.2273,-3.77161 12.0605,-4.30148 12.0605,-6.83556 l -125.2401,-0.31428 z m 601.2539,62.65925 c 0.5858,0.0405 1.5024,0.67389 2.8677,1.8071 2.0963,1.73944 3.8107,3.59734 3.8107,4.1249 0,0.52754 -1.7145,0.94284 -3.8107,0.94284 -2.0957,0 -3.8105,-1.85791 -3.8105,-4.1249 0,-1.68789 0.1447,-2.56905 0.7071,-2.71065 0.07,-0.0177 0.152,-0.045 0.2357,-0.0392 z m -100.0191,14.49609 27.578,0 27.5779,0 8.5248,32.40996 8.4856,32.37067 43.606,44.47039 43.5669,44.47039 -13.1604,52.05236 c -7.2528,28.64403 -13.7402,53.70876 -14.4176,55.70584 -0.6773,1.99708 -8.3492,-24.2822 -17.0496,-58.41649 -8.7002,-34.13429 -16.6416,-63.84175 -17.6389,-66.03775 -0.9971,-2.196 -23.2605,-23.76022 -49.4595,-47.88816 l -47.6132,-43.84184 0,-22.66733 0,-22.62804 z m 95.1086,0 11.6675,0 11.6675,0 22.0782,68.15912 c 12.133,37.4894 22.0387,70.0337 22.0387,72.28403 0,2.25032 -0.9023,4.63789 -2.0428,5.34273 -1.1404,0.70487 -20.0626,-16.69132 -42.0347,-38.69552 l -39.9527,-40.03121 8.2891,-33.50993 8.2892,-33.54922 z m 128.6576,0 13.8676,0 13.8675,0 0,67.33414 c 0,37.02767 -0.4196,67.33415 -0.9036,67.33415 -0.4838,0 -12.0951,-12.1201 -25.8101,-26.91009 l -24.9065,-26.8708 7.0319,-24.553 c 3.887,-13.50473 9.2987,-31.73041 11.9819,-40.46334 l 4.8713,-15.87106 z m 35.3563,0 41.9169,0 41.9169,0 0,185.46353 c 0,102.0007 -0.4169,185.46352 -0.9428,185.46352 -0.526,0 -14.2438,-14.15592 -30.485,-31.46712 l -29.5422,-31.5064 0,-70.08408 0,-70.08408 -11.4319,-10.52833 -11.4319,-10.56761 0,-73.34471 0,-73.34472 z m -173.7959,0.23571 c 2.8793,0.0113 4.7627,0.12697 4.9891,0.35356 0.4533,0.45318 -2.1313,12.78243 -5.7354,27.42079 -3.6044,14.63835 -7.2731,27.45847 -8.1713,28.48148 -0.8984,1.02303 -5.1153,-10.98002 -9.3499,-26.67438 l -7.6998,-28.52076 15.0854,-0.7857 c 4.142,-0.2101 8.0027,-0.28586 10.8819,-0.27499 z m -83.9123,53.11305 c 0.7947,0 20.8129,17.88766 44.4704,39.75621 l 43.0168,39.75621 0,77.11606 0,77.11606 -15.8711,0 -15.8711,0 -28.6385,-108.62247 c -25.6703,-97.43072 -31.6794,-125.12207 -27.1065,-125.12207 z m 187.742,21.56735 c 0.1467,-0.0132 0.3367,0.19856 0.5107,0.62856 0.6961,1.71999 0.7221,5.14943 0.078,7.62125 -0.6443,2.47181 -1.2057,1.04903 -1.2571,-3.14279 -0.039,-3.14385 0.2286,-5.06736 0.6677,-5.10702 z m -430.7578,5.65701 c 1.4575,-1.48911 44.1982,86.80525 55.3916,114.43661 1.0056,2.48221 -10.7174,3.14279 -53.6238,3.14279 -30.1907,0 -54.8808,-0.93903 -54.8808,-2.0821 0,-2.84234 50.6482,-112.97948 53.113,-115.4973 z m 439.7934,7.62125 c 1.5901,-0.27186 13.6373,11.19378 27.4207,26.12439 l 25.8887,28.01006 -0.039,48.87029 c -0.049,46.46772 -0.4031,49.99417 -7.2284,71.73404 l -7.1892,22.86375 -24.5529,0.74641 -24.5137,0.70713 0,-83.12663 c 0,-69.29743 0.7119,-85.68022 4.2034,-98.52627 2.3037,-8.4753 4.9586,-16.29187 5.8927,-17.36388 0.029,-0.0336 0.067,-0.0305 0.1182,-0.0392 z m -19.2497,4.55704 0.9428,8.87836 c 0.5179,4.89045 -0.377,14.89952 -2.0034,22.2352 -3.7746,17.02311 -8.9663,17.97512 -6.8356,1.25711 0.8461,-6.63703 2.9594,-16.64611 4.7142,-22.2352 l 3.182,-10.13547 z m -177.5673,1.8071 c 0.7617,0.76138 12.7891,44.66636 26.7137,97.58343 l 25.2994,96.20847 17.8746,16.49962 17.9139,16.5389 -0.7857,25.84939 -0.7465,25.88868 -43.8418,-41.99544 -43.8025,-41.99545 0,-97.97629 c 0,-53.89698 0.6136,-97.3627 1.3749,-96.60131 z M -5108.2234,613.7 c 0.926,0.0312 1.5714,1.0376 1.5714,2.67137 0,4.46245 -1.5149,5.13443 -3.6927,1.61068 -0.804,-1.30074 -0.3201,-3.09014 1.0999,-3.96777 0.3551,-0.2194 0.7128,-0.32466 1.0214,-0.31428 z m 93.0264,3.14279 7.3856,7.11055 7.4249,7.07126 -3.9678,13.08184 c -11.0648,36.46723 -10.4992,36.29817 -10.6855,3.06421 l -0.1572,-30.32786 z m -81.0444,4.67489 c 1.6562,0.30552 2.3366,21.84832 2.1606,66.58773 l -0.275,68.15912 21.6459,20.31024 21.6066,20.31024 -6.1676,20.11382 c -3.3828,11.04556 -6.4474,20.39322 -6.8357,20.78166 -0.3882,0.38845 -16.7454,-16.16621 -36.3384,-36.77057 -47.067,-49.4968 -45.6576,-43.38977 -27.4208,-116.63657 17.2531,-69.29554 14.9534,-63.47045 22.5495,-56.33439 6.232,5.85459 6.2856,5.83928 6.2856,0.5107 0,-2.95564 1.1535,-6.10314 2.5928,-6.9927 0.055,-0.0342 0.1429,-0.0491 0.1965,-0.0392 z m -81.2018,12.80684 15.0068,57.15938 c 8.2451,31.43858 15.0072,57.9971 15.046,59.04505 0.039,1.04796 -6.7802,1.92496 -15.1638,1.92496 l -15.2425,0 0.1964,-59.08434 0.1571,-59.04505 z m 177.1745,25.37798 0.1571,52.7202 c 0.088,28.99335 -0.1912,52.7202 -0.6285,52.7202 -0.4373,0 -3.8668,-3.19159 -7.6213,-7.11055 -6.3142,-6.59072 -6.8278,-8.75401 -6.7962,-28.59933 0.026,-16.44672 1.7708,-27.06968 7.464,-45.57037 l 7.4249,-24.16015 z m -23.4531,80.84811 c 0.6332,-0.0411 0.8453,1.50803 0.8644,4.9106 0.021,3.8425 -1.1171,6.9927 -2.5143,6.9927 -3.2123,0 -3.2123,-5.20421 0,-10.17476 0.7195,-1.11357 1.2702,-1.70387 1.6499,-1.72854 z m -132.8219,16.93175 c 11.9459,0.14619 11.9612,3.15458 22.0388,41.56332 4.343,16.55201 7.3415,30.6466 6.6785,31.30998 -0.6636,0.66334 -12.1665,-8.72727 -25.5745,-20.86023 l -24.3958,-22.03877 0,-14.96751 0,-14.9675 15.321,0 c 2.2569,0 4.2255,-0.0602 5.932,-0.0392 z m -143.3895,0.0392 17.9925,0 0,36.84914 c 0,20.26042 -0.2792,36.79345 -0.6286,36.77057 -0.5613,-0.0353 -32.3754,-65.83061 -34.5314,-71.41976 -0.4656,-1.20754 7.2702,-2.19995 17.1675,-2.19995 z m 88.4694,0 13.0032,0 13.0426,0 0,10.17477 c 0,5.58909 -0.8377,10.11423 -1.8857,10.0569 -1.0478,-0.0573 -6.9242,-4.64299 -13.0426,-10.17476 l -11.1175,-10.05691 z m 189.5492,0 c 5.8108,0 10.3742,2.18812 15.2032,7.22841 6.8564,7.15658 6.9161,7.4135 6.207,39.04908 l -0.7072,31.85998 -20.8601,-19.36741 -20.8211,-19.40669 6.3249,-19.68168 c 6.1936,-19.25446 6.5264,-19.68169 14.6533,-19.68169 z m -65.6842,0.0392 23.4922,0 c 12.925,-0.0126 23.4924,0.73296 23.4924,1.68924 0,0.95628 -1.8449,8.41292 -4.1249,16.5389 -2.2799,8.12596 -4.8717,14.71797 -5.7356,14.65323 -0.8639,-0.0646 -9.5473,-7.49424 -19.3281,-16.49961 l -17.796,-16.38176 z m -184.6779,5.46058 c 0.038,-0.02 0.081,-0.0146 0.1182,0 1.1977,0.46575 20.3175,18.29071 42.4669,39.59908 l 40.267,38.73481 -42.4669,0 -42.4276,0 0,-39.59908 c 0,-21.09371 0.8968,-38.11508 2.0428,-38.73481 z m 140.6003,12.72828 c 1.8048,-0.0649 10.986,9.25654 35.4742,35.43488 l 28.2065,30.17073 -23.8852,0 -23.8851,0 -7.2678,-29.85645 c -3.9821,-16.41791 -7.8446,-31.57116 -8.6033,-33.66707 -0.4818,-1.33122 -0.5447,-2.06392 -0.039,-2.08209 z m 141.386,7.58196 c 0.037,-0.0113 0.081,0.0249 0.1182,0.0392 1.1966,0.46575 14.4785,13.70503 29.5028,29.42432 l 27.3029,28.56005 -29.4635,0 -29.503,0 0,-29.42432 c 0,-15.67927 0.8973,-28.25311 2.0429,-28.59933 z m -2119.8862,93.06569 0,1.06069 -10.1748,0 -6.0105,0 0,6.04986 0,326.02458 0,6.0499 6.0105,0 1000.6623,0 0,234.7659 1193.7079,0 0,-234.7659 994.0625,0 6.0106,0 0,-6.0499 0,-326.02458 0,-6.04986 -6.0106,0 -3.5749,0 0,-1.06069 -3174.683,0 z m -4.125,13.12112 4.125,0 0,9.70334 990.4875,0 0,30.48501 1193.7079,0 0,-30.48501 988.0127,0 0,304.30007 -3176.3331,0 0,-314.00341 z m 2321.1423,24.23872 -12.2962,49.3417 4.0072,0 34.5706,-49.3417 -26.2816,0 z m -1312.1516,58.80934 c -13.5169,2e-4 -24.6411,5.0276 -33.392,15.08536 -8.7509,10.05813 -13.1212,22.02669 -13.1212,35.94559 0,8.0084 1.4702,15.3654 4.4393,22.0388 2.969,6.6736 7.339,12.7773 13.0818,18.3067 5.7427,5.5296 15.397,12.94 28.9921,22.2352 13.5952,9.2954 21.8987,15.3681 24.946,18.2282 4.5316,4.1948 7.8689,8.7304 10.0175,13.5925 2.1487,4.8622 3.2606,9.6508 3.2607,14.4175 -1e-4,8.5803 -2.8603,16.0216 -8.5248,22.3137 -5.6647,6.2923 -13.3722,9.4284 -23.1387,9.4284 -8.4385,0 -16.1856,-2.2594 -23.2566,-6.8356 -7.0712,-4.5761 -12.3155,-10.3341 -15.7533,-17.2459 -3.4378,-6.9119 -6.1791,-17.3124 -8.2105,-31.2315 l -4.3606,0 0,66.4699 4.3606,0 c 0.5469,-4.4808 1.3814,-7.4091 2.5143,-8.839 1.1329,-1.4301 2.6822,-2.1608 4.6356,-2.1608 2.0314,0 6.8388,1.5147 14.4568,4.5178 7.6178,3.003 12.6631,4.7482 15.0853,5.2249 4.0629,0.8579 8.3934,1.2571 13.0033,1.2571 14.6889,0 26.6871,-5.3196 36.0242,-15.9497 9.3368,-10.6299 14.0245,-23.2672 14.0246,-37.9491 -1e-4,-7.7222 -1.47,-15.1017 -4.3999,-22.1566 -2.9301,-7.0548 -7.1409,-13.1894 -12.5711,-18.3853 -5.4304,-5.1957 -15.5612,-12.6679 -30.4065,-22.3923 -18.205,-11.9168 -29.7263,-21.449 -34.5706,-28.5994 -3.3598,-4.862 -5.0285,-10.235 -5.0285,-16.1459 0,-7.7221 2.6619,-14.60988 7.9749,-20.66389 5.313,-6.05365 12.0272,-9.0746 20.1531,-9.07478 7.1881,1.8e-4 14.1407,2.23708 20.8602,6.7177 6.7194,4.48096 11.8843,10.52287 15.5175,18.14957 3.6332,7.6271 6.1756,17.8898 7.582,30.76 l 4.3213,0 0,-67.05915 -4.3213,0 c -0.7814,4.48099 -1.8144,7.44013 -3.1036,8.91765 -1.2892,1.4779 -2.9577,2.20014 -4.9891,2.19995 -1.7971,1.9e-4 -4.8958,-1.19133 -9.2712,-3.57492 -9.4542,-5.05261 -18.3932,-7.54248 -26.8316,-7.54268 z m 409.6227,0 -55.9023,159.57485 c -4.8443,14.0145 -9.2542,23.3161 -13.239,27.8922 -1.9533,2.2881 -6.2834,4.1484 -12.9247,5.5785 l 0,5.2642 50.0488,0 0,-5.2642 c -7.6571,-0.6674 -12.6233,-2.1203 -14.9282,-4.3607 -2.3049,-2.2404 -3.4571,-4.8622 -3.4571,-7.8176 0,-3.7182 1.3113,-9.3216 3.9679,-16.8532 l 10.8032,-30.6028 61.5201,0 9.6247,27.8922 c 3.1252,9.0568 4.6748,15.6832 4.675,19.8781 -2e-4,3.146 -1.1125,5.7821 -3.3393,7.9747 -2.2269,2.1928 -6.5175,3.5079 -12.846,3.8893 l 0,5.2642 62.6985,0 0,-5.2642 c -6.4854,-0.4767 -11.5309,-2.6602 -15.1641,-6.5213 -3.6331,-3.8611 -7.6854,-12.2551 -12.1389,-25.2208 l -55.313,-161.30345 -4.0856,0 z m 406.9119,0 -55.9022,159.57485 c -4.8444,14.0145 -9.2542,23.3161 -13.239,27.8922 -1.9533,2.2881 -6.2441,4.1484 -12.8854,5.5785 l 0,5.2642 50.0096,0 0,-5.2642 c -7.6574,-0.6674 -12.6236,-2.1203 -14.9283,-4.3607 -2.3051,-2.2404 -3.4573,-4.8622 -3.457,-7.8176 -3e-4,-3.7182 1.3112,-9.3216 3.9677,-16.8532 l 10.8034,-30.6028 61.5198,0 9.6249,27.8922 c 3.1252,9.0568 4.6748,15.6832 4.6748,19.8781 0,3.146 -1.1124,5.7821 -3.3391,7.9747 -2.227,2.1928 -6.5174,3.5079 -12.8462,3.8893 l 0,5.2642 62.7379,0 0,-5.2642 c -6.4852,-0.4767 -11.5704,-2.6602 -15.2032,-6.5213 -3.6336,-3.8611 -7.6856,-12.2551 -12.1391,-25.2208 l -55.313,-161.30345 -4.0856,0 z m 497.5027,0 c -20.7835,2e-4 -38.6219,8.42511 -53.5451,25.29941 -17.1895,19.44874 -25.8102,44.55474 -25.8102,75.34824 0,30.1263 7.4685,54.6871 22.3531,73.659 14.8841,18.9718 33.2392,28.4422 55.1165,28.4422 21.6429,0 40.116,-9.7008 55.3524,-29.1493 15.2355,-19.4486 22.8242,-43.9251 22.8244,-73.3841 -2e-4,-28.6007 -7.5489,-52.4618 -22.6673,-71.5768 -15.1191,-19.11472 -32.9967,-28.63845 -53.6238,-28.63865 z m 346.924,0 c -20.7834,2e-4 -38.6609,8.42511 -53.5845,25.29941 -17.1891,19.44874 -25.7708,44.55474 -25.7708,75.34824 0,30.1263 7.4295,54.6871 22.3137,73.659 14.8845,18.9718 33.2787,28.4422 55.1559,28.4422 21.643,0 40.077,-9.7008 55.313,-29.1493 15.236,-19.4486 22.8636,-43.9251 22.8639,-73.3841 -3e-4,-28.6007 -7.5487,-52.4618 -22.6674,-71.5768 -15.1189,-19.11472 -32.9966,-28.63845 -53.6238,-28.63865 z m 382.8697,0 -55.9023,159.57485 c -4.8443,14.0145 -9.2544,23.3161 -13.2389,27.8922 -1.9534,2.2881 -6.2443,4.1484 -12.8854,5.5785 l 0,5.2642 50.0487,0 0,-5.2642 c -7.657,-0.6674 -12.6232,-2.1203 -14.9282,-4.3607 -2.3048,-2.2404 -3.4571,-4.8622 -3.4571,-7.8176 0,-3.7182 1.3113,-9.3216 3.9678,-16.8532 l 10.7641,-30.6028 61.5593,0 9.5855,27.8922 c 3.125,9.0568 4.7139,15.6832 4.7142,19.8781 -3e-4,3.146 -1.1126,5.7821 -3.3393,7.9747 -2.227,2.1928 -6.5175,3.5079 -12.8461,3.8893 l 0,5.2642 62.6986,0 0,-5.2642 c -6.4854,-0.4767 -11.5309,-2.6602 -15.1641,-6.5213 -3.6332,-3.8611 -7.6855,-12.2551 -12.1389,-25.2208 l -55.313,-161.30345 -4.1249,0 z m -3011.6512,4.3999 0,5.30345 5.9713,0 c 6.0163,1.8e-4 10.3469,1.86051 13.0425,5.57844 2.6957,3.71829 4.0464,11.53619 4.0464,23.45306 l 0,75.7803 c 0,23.3574 1.2711,39.2854 3.7714,47.7703 3.7503,12.3938 10.107,22.28 19.0924,29.6208 8.9852,7.3409 22.1355,10.9997 39.4811,10.9997 15.9391,0 28.5725,-3.8358 37.8314,-11.5104 9.2586,-7.6745 15.4564,-16.8919 18.621,-27.6172 3.1642,-10.7252 4.7532,-25.8075 4.7534,-45.2562 l 0,-78.6481 c -2e-4,-10.7728 0.7947,-17.62961 2.4356,-20.58521 3.3596,-6.38734 8.1667,-9.58531 14.4176,-9.58549 l 5.9713,0 c 4.3794,0.0279 7.6705,0.46731 9.8604,1.29639 4.6098,1.81158 8.106,3.75623 10.4891,5.85344 2.383,2.09757 5.8791,6.42526 10.489,13.00327 l 0,134.8647 c 0,10.8684 -0.8738,17.8095 -2.5928,20.8603 -2.8128,4.9574 -7.5807,7.4641 -14.3782,7.4641 l -5.5391,0 0,5.2642 55.313,0 0,-5.2642 -5.6178,0 c -6.1726,0 -10.7413,-2.0065 -13.7104,-6.0106 -2.1097,-2.9554 -3.1429,-10.3968 -3.1428,-22.3138 l 0,-119.4258 104.7725,156.1964 4.2036,0 0,-163.464 c -2e-4,-10.8682 0.8737,-17.84865 2.5928,-20.89958 2.8126,-4.95729 7.58,-7.42464 14.2996,-7.42482 l 5.6177,0 0,-5.30345 -55.313,0 0,5.30345 5.4999,0 c 6.2506,1.8e-4 10.8193,2.00664 13.7104,6.01057 2.1877,2.9556 3.2998,10.39693 3.3,22.31383 l 0,111.8045 -97.1906,-145.43235 -42.6633,0 -56.2558,0 0,5.30345 6.0105,0 c 6.0161,1.8e-4 10.5453,2.09096 13.5925,6.28556 2.1876,3.05094 3.2606,10.63839 3.2607,22.74594 l 0,78.491 c -1e-4,20.5927 -1.5098,35.2139 -4.5178,43.8419 -3.0083,8.6279 -8.61,15.7236 -16.8139,21.253 -8.2041,5.5295 -17.5005,8.2891 -27.8922,8.2891 -8.1259,0 -14.9594,-1.776 -20.5459,-5.3035 -5.5866,-3.5274 -9.8771,-8.0011 -12.8462,-13.4354 -2.969,-5.4341 -5.0347,-13.0215 -6.1676,-22.7458 -1.1331,-9.7243 -1.6893,-18.3571 -1.6893,-25.8888 l 0,-84.5015 c 0,-10.8682 0.9929,-18.01727 2.9464,-21.44954 2.8126,-5.05263 7.5007,-7.58178 14.0639,-7.58196 l 6.0891,0 0,-5.30345 -68.6698,0 z m 351.5989,0 0,5.30345 5.6178,0 c 3.7504,1.8e-4 7.3261,1.12989 10.764,3.41777 2.4221,1.71624 4.0507,3.78449 4.832,6.16772 1.0158,3.14626 1.4928,9.62651 1.4928,19.44601 l 0,125.2792 c 0,11.631 -0.914,18.9487 -2.7891,21.9994 -2.9691,4.6715 -7.7366,7.0321 -14.2997,7.0321 l -5.6178,0 0,5.2642 68.0806,0 0,-5.2642 -5.7355,0 c -3.7505,0 -7.3259,-1.169 -10.6855,-3.4571 -2.5003,-1.7161 -4.1294,-3.745 -4.9107,-6.1284 -1.0157,-3.1462 -1.5321,-9.6263 -1.532,-19.446 l 0,-125.2792 c -1e-4,-11.63087 0.993,-18.98788 2.9463,-22.03881 2.969,-4.67128 7.6967,-6.99251 14.1819,-6.99269 l 5.7355,0 0,-5.30345 -68.0806,0 z m 76.2911,0 0,5.30345 c 4.8443,0.47687 8.6978,1.55316 11.5497,3.22135 2.8519,1.66857 5.2358,3.95889 7.1892,6.91412 1.2501,1.90691 3.3955,7.17313 6.4427,15.75323 l 59.5558,167.1568 4.3213,0 55.4308,-164.9962 c 3.2034,-9.6287 6.8979,-16.8171 11.0391,-21.48874 2.8907,-3.14591 7.1418,-5.32101 12.7675,-6.56056 l 0,-5.30345 -48.9881,0 0,5.30345 c 0.9374,0.19085 1.5734,0.33698 1.9642,0.43213 5.391,1.04888 9.2445,2.81651 11.5104,5.34273 2.2658,2.52658 3.3784,5.21025 3.3785,7.97481 -1e-4,4.29033 -1.8277,11.96203 -5.4999,23.02083 l -37.5169,112.2368 -40.4241,-113.6902 c -3.5941,-10.1056 -5.3821,-17.5469 -5.382,-22.31384 -1e-4,-3.43192 1.1122,-6.21403 3.3,-8.40694 2.1876,-2.19255 6.9551,-3.73812 14.2996,-4.59632 l 0,-5.30345 -64.9378,0 z m 176.2709,0 0,5.30345 5.6177,0 c 6.5633,1.8e-4 11.2512,1.92232 14.064,5.73558 2.0315,2.86026 3.025,10.40843 3.025,22.70662 l 0,125.9864 c 0,9.4383 -0.4373,15.688 -1.3357,18.7388 -0.8986,3.0507 -2.6068,5.3495 -5.107,6.8749 -3.3598,2.1926 -6.8958,3.2999 -10.6463,3.2999 l -5.6177,0 0,5.2642 122.4507,0 13.7105,-48.5954 -4.675,0 c -5.0787,11.9171 -10.0447,20.8422 -14.8889,26.753 -3.7504,4.4807 -7.6441,7.4708 -11.7068,8.9962 -4.063,1.5253 -10.5787,2.2785 -19.5639,2.2785 l -26.9887,0 c -4.3755,0 -7.3158,-0.5535 -8.8784,-1.65 -1.5627,-1.0963 -2.6748,-2.5801 -3.2999,-4.4391 -0.625,-1.859 -0.9428,-7.0552 -0.9428,-15.6353 l 0,-63.9165 34.9242,0 c 6.6412,10e-5 11.5675,0.9218 14.7711,2.8285 3.2034,1.9068 5.5076,4.5596 6.9141,7.8963 1.0937,2.6695 2.206,8.7113 3.3,18.1496 l 4.3213,0 0,-67.4913 -4.3213,0 c -0.4689,11.0591 -2.7335,18.7534 -6.7964,23.1387 -3.0472,3.3369 -9.1255,5.0286 -18.1888,5.0284 l -34.9242,0 0,-76.64456 43.6061,0 c 7.8914,1.9e-4 13.4135,0.69153 16.539,2.12138 3.9065,2.00224 6.8465,4.90796 8.839,8.72123 1.9923,3.81365 3.8197,10.81665 5.4606,21.01735 l 4.5571,0 -1.7679,-42.46685 -122.4507,0 z m 145.9038,0 0,5.30345 5.9713,0 c 6.0161,1.8e-4 10.5453,2.09096 13.5925,6.28556 2.1876,2.9556 3.2999,10.54305 3.2999,22.74594 l 0,125.2792 c 0,11.059 -0.8342,18.0619 -2.475,21.0174 -2.8908,5.3388 -7.698,8.0141 -14.4174,8.0141 l -5.9713,0 0,5.2642 68.0805,0 0,-5.2642 -6.207,0 c -5.9381,0 -10.3878,-2.0908 -13.3569,-6.2856 -2.1877,-2.9555 -3.2999,-10.5429 -3.2999,-22.7459 l 0,-56.3345 c 1.2501,0.095 2.4816,0.1489 3.6536,0.1965 1.1719,0.048 2.2841,0.078 3.2999,0.078 2.5001,0 5.7185,-0.084 9.7033,-0.275 l 53.7809,90.63 42.4276,0 0,-5.2641 c -8.6729,-1.1441 -15.7049,-3.8194 -21.096,-8.0141 -5.3913,-4.1949 -11.8274,-12.6815 -19.3281,-25.4566 l -32.8028,-55.6272 c 13.3606,-3.6228 23.2135,-9.8108 29.5814,-18.5818 6.3678,-8.7707 9.5462,-19.1178 9.5463,-31.035 -1e-4,-11.1541 -2.7812,-20.7789 -8.3677,-28.83499 -5.5866,-8.05572 -12.3802,-13.57491 -20.3888,-16.57818 -8.0088,-3.00289 -20.4439,-4.51756 -37.3205,-4.51775 l -57.9058,0 z m 295.8145,0 0,5.30345 5.6177,0 c 3.7504,1.8e-4 7.3654,1.12989 10.8033,3.41777 2.4221,1.71624 4.0114,3.78449 4.7928,6.16772 1.0156,3.14626 1.532,9.62651 1.532,19.44601 l 0,125.2792 c 0,11.631 -0.9532,18.9487 -2.8285,21.9994 -2.969,4.6715 -7.7364,7.0321 -14.2996,7.0321 l -5.6177,0 0,5.2642 68.0805,0 0,-5.2642 -5.7356,0 c -3.7505,0 -7.2865,-1.169 -10.6461,-3.4571 -2.5003,-1.7161 -4.1686,-3.745 -4.9499,-6.1284 -1.0157,-3.1462 -1.5322,-9.6263 -1.5322,-19.446 l 0,-125.2792 c 0,-11.63087 0.993,-18.98788 2.9465,-22.03881 2.9689,-4.67128 7.6966,-6.99251 14.1817,-6.99269 l 5.7356,0 0,-5.30345 -68.0805,0 z m 78.2945,0 0,5.30345 5.9713,0 c 6.0163,1.8e-4 10.5455,2.09096 13.5926,6.28556 2.1877,3.05094 3.2607,10.63839 3.2607,22.74594 l 0,125.2792 c 0,10.9636 -0.8346,18.0284 -2.5536,21.1745 -2.8128,5.2435 -7.5801,7.857 -14.2997,7.857 l -5.9713,0 0,5.2642 71.027,0 c 30.8625,0 53.8257,-10.0774 68.9055,-30.2887 13.4388,-18.1137 20.153,-40.6682 20.1532,-67.6484 -2e-4,-20.1159 -3.7744,-37.8424 -11.3141,-53.1916 -7.54,-15.3489 -17.5117,-26.30302 -29.8958,-32.88138 -12.3842,-6.578 -30.4212,-9.89958 -54.1736,-9.89977 l -64.7022,0 z m 346.8849,0 0,5.30345 6.0105,0 c 6.0163,1.8e-4 10.5453,2.09096 13.5926,6.28556 2.1877,3.05094 3.2606,10.63839 3.2606,22.74594 l 0,125.2792 c 0,10.9636 -0.8346,18.0284 -2.5535,21.1745 -2.8128,5.2435 -7.5803,7.857 -14.2997,7.857 l -6.0105,0 0,5.2642 71.0269,0 c 30.8623,0 53.865,-10.0774 68.9448,-30.2887 13.4388,-18.1137 20.1528,-40.6682 20.1532,-67.6484 -4e-4,-20.1159 -3.7745,-37.8424 -11.3141,-53.1916 -7.5401,-15.3489 -17.5118,-26.30302 -29.8958,-32.88138 -12.3842,-6.578 -30.4606,-9.89958 -54.213,-9.89977 l -64.702,0 z m 404.1227,0 0,5.30345 5.9713,0 c 6.0163,1.8e-4 10.3861,1.86051 13.0819,5.57844 2.6953,3.71829 4.0462,11.53619 4.0462,23.45306 l 0,75.7803 c 0,23.3574 1.2319,39.2854 3.732,47.7703 3.7506,12.3938 10.107,22.28 19.0926,29.6208 8.9851,7.3409 22.1749,10.9997 39.5203,10.9997 15.9392,0 28.533,-3.8358 37.7921,-11.5104 9.2587,-7.6745 15.4565,-16.8919 18.6209,-27.6172 3.1644,-10.7252 4.7534,-25.8075 4.7535,-45.2562 l 0,-78.6481 c -1e-4,-10.7728 0.8341,-17.62961 2.4749,-20.58521 3.3598,-6.38734 8.1667,-9.58531 14.4176,-9.58549 l 5.9713,0 0,-5.30345 -56.2558,0 0,5.30345 5.9712,0 c 6.0162,1.8e-4 10.5452,2.09096 13.5926,6.28556 2.1876,3.05094 3.2998,10.63839 3.2999,22.74594 l 0,78.491 c -1e-4,20.5927 -1.5099,35.2139 -4.5177,43.8419 -3.0084,8.6279 -8.6102,15.7236 -16.8139,21.253 -8.2043,5.5295 -17.5005,8.2891 -27.8923,8.2891 -8.1257,0 -14.9986,-1.776 -20.5852,-5.3035 -5.5864,-3.5274 -9.8771,-8.0011 -12.8461,-13.4354 -2.9691,-5.4341 -4.9955,-13.0215 -6.1284,-22.7458 -1.1331,-9.7243 -1.7286,-18.3571 -1.7286,-25.8888 l 0,-84.5015 c 0,-10.8682 0.9932,-18.01727 2.9463,-21.44954 2.8129,-5.05263 7.5007,-7.58178 14.0641,-7.58196 l 6.0891,0 0,-5.30345 -68.6698,0 z m 181.2992,0 -1.8856,45.49185 4.4786,0 c 0.5467,-8.7708 2.2552,-15.7513 5.1462,-20.8996 2.8909,-5.14794 6.3868,-8.59888 10.4498,-10.41044 3.1253,-1.33453 8.3698,-2.00335 15.7925,-2.00353 l 19.1316,0 0,148.14297 c 0,10.8684 -0.874,17.8095 -2.5927,20.8603 -2.813,4.9574 -7.5802,7.4641 -14.2996,7.4641 l -5.6178,0 0,5.2642 67.3735,0 0,-5.2642 -5.4999,0 c -6.1728,0 -10.7415,-2.0065 -13.7105,-6.0106 -2.1097,-2.9554 -3.1821,-10.3968 -3.1821,-22.3138 l 0,-148.14297 22.3925,0 c 6.5628,1.8e-4 11.8469,1.30692 15.871,3.92848 4.0235,2.62192 7.2811,6.68825 9.7033,12.21759 1.4844,3.4323 2.6367,9.1594 3.4964,17.1675 l 4.4391,0 -1.7285,-45.49185 -129.7578,0 z m 307.8751,0 0,5.30345 c 4.6098,1.8e-4 8.0661,0.43855 10.3318,1.29639 4.6101,1.81158 8.106,3.75623 10.4891,5.85344 2.383,2.09757 5.879,6.42526 10.4891,13.00327 l 0,134.8647 c -2e-4,10.8684 -0.8738,17.8095 -2.5929,20.8603 -2.8127,4.9574 -7.6199,7.4641 -14.4175,7.4641 l -5.4998,0 0,5.2642 55.313,0 0,-5.2642 -5.6177,0 c -6.1728,0 -10.7414,-2.0065 -13.7105,-6.0106 -2.1097,-2.9554 -3.1821,-10.3968 -3.1821,-22.3138 l 0,-119.4258 104.8118,156.1964 4.2036,0 0,-163.464 c -1e-4,-10.8682 0.8737,-17.84865 2.5928,-20.89958 2.8126,-4.95729 7.58,-7.42464 14.2996,-7.42482 l 5.6177,0 0,-5.30345 -55.313,0 0,5.30345 5.4999,0 c 6.2507,1.8e-4 10.8193,2.00664 13.7104,6.01057 2.1877,2.9556 3.2606,10.39693 3.2606,22.31383 l 0,111.8045 -97.1512,-145.43235 -43.1347,0 z m 354.0739,0 0,5.30345 c 6.4848,1.8e-4 11.2123,0.93035 14.1425,2.78922 2.9299,1.85923 4.9166,4.18884 6.0105,6.9534 1.5626,3.81362 2.3571,10.00168 2.3571,18.58178 l 0,126.6934 c 0,10.8684 -0.8739,17.8095 -2.5928,20.8603 -2.8128,4.9574 -7.5802,7.4641 -14.2996,7.4641 l -5.6177,0 0,5.2642 55.313,0 0,-5.2642 -5.6178,0 c -6.2507,0 -10.8196,-2.0065 -13.7103,-6.0106 -2.1098,-2.9554 -3.1822,-10.3968 -3.1822,-22.3138 l 0,-129.5613 61.4415,163.1499 3.8499,0 61.2843,-163.1499 0,129.5613 c -2e-4,10.8684 -0.8349,17.8095 -2.5535,20.8603 -2.735,4.9574 -7.5024,7.4641 -14.2997,7.4641 l -5.6177,0 0,5.2642 67.4912,0 0,-5.2642 -5.4998,0 c -6.2509,0 -10.8195,-2.0065 -13.7105,-6.0106 -2.1877,-2.9554 -3.2999,-10.3968 -3.2999,-22.3138 l 0,-126.6934 c 0,-10.8682 0.8736,-17.84865 2.5929,-20.89958 2.8124,-4.95729 7.6196,-7.42464 14.4175,-7.42482 l 5.4998,0 0,-5.30345 -45.0203,0 -56.7273,151.75715 -57.6308,-151.75715 -45.0203,0 z m -438.8113,6.01057 c 15.1579,1.9e-4 27.0366,6.48045 35.6314,19.44598 10.704,16.3027 16.0674,41.0714 16.0674,74.2483 0,30.6029 -4.8472,52.9719 -14.5746,67.177 -9.7277,14.205 -22.083,21.3316 -37.0063,21.3316 -13.9859,0 -25.229,-6.4803 -33.7457,-19.4459 -11.0948,-17.0652 -16.6174,-41.4181 -16.6174,-73.0698 0,-30.8887 5.3239,-54.3424 16.0282,-70.3591 8.5946,-12.87015 19.9969,-19.32789 34.217,-19.32808 z m 346.9241,0 c 15.1578,1.9e-4 27.0365,6.48045 35.6314,19.44598 10.7039,16.3027 16.0673,41.0714 16.0674,74.2483 -10e-5,30.6029 -4.8865,52.9719 -14.614,67.177 -9.7276,14.205 -22.0437,21.3316 -36.9669,21.3316 -13.9861,0 -25.2292,-6.4803 -33.7457,-19.4459 -11.0949,-17.0652 -16.6567,-41.4181 -16.6567,-73.0698 0,-30.8887 5.3633,-54.3424 16.0674,-70.3591 8.5947,-12.87015 19.9968,-19.32789 34.2171,-19.32808 z m -1812.8362,4.87132 c 10.2352,1.8e-4 18.4592,3.77427 24.6708,11.3533 6.2115,7.57946 9.3104,17.43466 9.3104,29.54226 0,12.3937 -3.8536,22.5947 -11.5497,30.6027 -7.6962,8.0083 -19.0986,12.0213 -34.2563,12.0212 -0.7033,10e-5 -1.6168,-0.03 -2.7106,-0.078 -1.094,-0.048 -2.4048,-0.078 -3.8893,-0.078 l 0,-80.65168 c 7.7352,-1.81119 13.8929,-2.71046 18.4247,-2.71065 z m 379.8446,0 c 18.7519,1.8e-4 34.0874,7.73376 46.0418,23.17796 11.9542,15.4447 17.9531,36.5378 17.9532,63.3271 -1e-4,26.5989 -5.999,47.6695 -17.9532,63.2093 -11.9544,15.5399 -26.9721,23.3352 -45.099,23.3352 -6.7195,0 -15.0622,-1.3377 -24.9851,-4.007 l 0,-164.87838 c 8.9853,-2.76456 17.0103,-4.164 24.0423,-4.16418 z m 346.9241,0 c 18.7519,1.8e-4 34.0873,7.73376 46.0418,23.17796 11.9543,15.4447 17.9137,36.5378 17.9138,63.3271 -10e-5,26.5989 -5.9595,47.6695 -17.9138,63.2093 -11.9545,15.5399 -27.0115,23.3352 -45.1383,23.3352 -6.7194,0 -15.0229,-1.3377 -24.9458,-4.007 l 0,-164.87838 c 8.9852,-2.76456 17.0103,-4.164 24.0423,-4.16418 z m -167.3926,29.18866 26.9887,78.3338 -54.6452,0 27.6565,-78.3338 z m 406.9121,0 26.9886,78.3338 -54.6451,0 27.6565,-78.3338 z m 1227.3355,0 26.9495,78.3338 -54.606,0 27.6565,-78.3338 z m -1465.6372,222.7448 7.2677,0 42.8204,145.1573 c 0.9055,3.0834 1.9562,5.5666 3.1036,7.4641 1.147,1.8974 2.7398,3.76 4.7926,5.5784 1.3886,1.1069 3.1873,2.0382 5.4215,2.7893 2.2337,0.751 4.1081,1.1387 5.6176,1.2178 l 0,8.4462 -53.5059,0 0,-8.4462 c 4.7094,-0.3953 8.5974,-1.1712 11.7069,-2.3571 3.1093,-1.186 4.6748,-2.6606 4.6748,-4.3999 0,-0.7116 -0.075,-1.565 -0.1963,-2.5928 -0.1207,-1.0278 -0.3087,-1.9594 -0.55,-2.75 l -10.6855,-37.7134 -44.9811,0 c -1.6906,5.5345 -3.0683,10.3849 -4.1249,14.4962 -1.0566,4.1112 -2.0226,7.8745 -2.8677,11.3532 -0.785,3.3998 -1.3089,6.1938 -1.6108,8.3284 -0.3019,2.1347 -0.4714,3.8808 -0.4714,5.2249 0,3.1626 1.8925,5.6069 5.6964,7.3462 3.8036,1.7394 8.1155,2.7481 12.8854,3.0643 l 0,8.4462 -48.3596,0 0,-8.4462 c 1.5697,-0.1582 3.4986,-0.5846 5.8533,-1.3357 2.3548,-0.751 4.3048,-1.76 5.8142,-3.0249 2.4151,-2.1347 4.2895,-4.3854 5.6178,-6.7178 1.3282,-2.3323 2.6212,-5.5528 3.8892,-9.664 6.4603,-21.1096 13.5821,-44.817 21.3709,-71.1447 7.7886,-26.3276 14.7227,-49.7635 20.8209,-70.3198 z m -527.9091,2.3571 56.1772,0 c 7.7283,10e-5 15.3377,1.552 22.8246,4.6748 7.4866,3.1232 14.009,7.3527 19.5638,12.6497 7.5471,7.0367 13.4305,16.2324 17.7174,27.6173 4.2867,11.385 6.4425,24.7713 6.4427,40.1883 -2e-4,14.3103 -2.0622,26.7267 -6.1677,37.242 -4.1058,10.5153 -9.4472,19.1291 -16.0282,25.8494 -6.6416,6.7202 -14.0814,11.7648 -22.3531,15.0853 -8.2717,3.3207 -16.8379,4.9892 -25.6529,4.9892 l -53.231,0 0,-8.4462 c 1.7511,0 4.0281,-0.1938 6.8356,-0.6286 2.8075,-0.4348 4.6728,-0.9393 5.5784,-1.4928 1.8114,-1.0278 3.1134,-2.5409 3.9285,-4.5571 0.8151,-2.016 1.2179,-4.4607 1.2179,-7.3069 l 0,-121.4293 c 0,-2.6879 -0.3271,-5.0936 -1.0214,-7.2284 -0.6944,-2.1346 -2.0721,-3.8418 -4.125,-5.107 -1.8717,-1.1858 -3.9155,-2.0785 -6.089,-2.6322 -2.1737,-0.5532 -4.048,-0.9023 -5.6178,-1.0606 l 0,-8.4069 z m 137.6539,0 99.4691,0 0,40.5419 -6.7962,0 c -1.2077,-6.0086 -3.842,-12.3718 -7.857,-19.1318 -4.0152,-6.7596 -7.8093,-10.4456 -11.4319,-11.0783 -1.8717,-0.316 -4.1215,-0.5881 -6.7176,-0.7463 -2.5964,-0.1581 -5.5577,-0.2356 -8.8784,-0.2357 l -20.1924,0 0,66.9019 14.496,0 c 4.6491,10e-5 8.0314,-0.582 10.1749,-1.7285 2.1432,-1.1463 4.0267,-3.0474 5.657,-5.7356 1.3282,-2.2927 2.4818,-5.358 3.4177,-9.1927 0.9358,-3.8344 1.5445,-7.4427 1.8464,-10.8426 l 6.7962,0 0,65.8021 -6.7962,0 c -0.2416,-3.7949 -0.8684,-7.7913 -1.925,-12.0211 -1.0566,-4.2298 -2.192,-7.2952 -3.3391,-9.1926 -1.8719,-3.0835 -3.9793,-5.1012 -6.3642,-6.0499 -2.385,-0.9487 -5.5432,-1.4143 -9.4677,-1.4143 l -14.496,0 0,50.5203 c -1e-4,5.06 0.2815,9.0173 0.8249,11.9426 0.5435,2.9253 1.6123,5.1761 3.1822,6.6784 1.5697,1.5021 3.6863,2.4329 6.4033,2.8677 2.717,0.4348 6.5777,0.6679 11.5891,0.6679 l 7.8962,0 c 3.2603,0 6.0158,-0.1552 8.2498,-0.4714 2.2943,-0.3163 4.6653,-0.8985 7.1106,-1.7285 2.4452,-0.8302 4.159,-1.9555 5.1856,-3.3785 2.7772,-3.795 5.7113,-9.5375 8.7604,-17.2461 3.049,-7.7085 4.9688,-13.3734 5.8142,-17.0103 l 6.5213,0 -2.4357,49.5774 -106.6975,0 0,-8.4462 c 1.8114,-0.1582 4.2488,-0.4682 7.2677,-0.9821 3.0189,-0.5139 4.987,-1.0572 5.8928,-1.6107 1.932,-1.186 3.2522,-2.7382 4.007,-4.6357 0.7547,-1.8974 1.1392,-4.3031 1.1392,-7.2284 l 0,-120.9578 c 0,-2.609 -0.3179,-4.9372 -0.9821,-6.9535 -0.6641,-2.0159 -2.0509,-3.6453 -4.1641,-4.9105 -1.6303,-1.0277 -3.8135,-1.9592 -6.5607,-2.7499 -2.7471,-0.7905 -4.9696,-1.256 -6.5998,-1.4143 l 0,-8.4069 z m 163.6605,0 43.8418,0 36.7706,126.1827 31.4278,-105.5583 c 1.1471,-3.8739 2.1312,-7.909 2.9464,-12.1389 0.815,-4.2297 1.2359,-7.0622 1.2964,-8.4855 l 41.9561,0 0,8.4069 c -1.6907,0.079 -3.8557,0.4283 -6.4819,1.0606 -2.6266,0.6328 -4.5283,1.2539 -5.7356,1.8071 -2.053,0.9489 -3.4791,2.5007 -4.2034,4.7142 -0.7247,2.2139 -1.0609,4.6588 -1.0608,7.2678 l 0,121.3114 c -10e-5,2.7672 0.3361,5.0952 1.0608,6.9927 0.7243,1.8975 2.1504,3.5661 4.2034,4.9891 1.0867,0.7906 2.9973,1.5279 5.7748,2.2 2.7772,0.672 4.9696,1.0209 6.5999,1.1 l 0,8.4462 -56.7665,0 0,-8.4462 c 2.0527,-0.079 4.7052,-0.3507 7.9355,-0.825 3.23,-0.4744 5.4315,-1.1339 6.6392,-2.0036 1.8715,-1.5021 3.2493,-3.2092 4.1249,-5.1462 0.8753,-1.9371 1.2962,-4.3817 1.2963,-7.307 l 0,-122.4114 -1.3356,0 -43.8418,143.3895 -4.5178,0 -41.7598,-146.3359 -1.1786,0 0,100.4513 c 0,9.7246 0.4785,17.0966 1.4143,22.1566 0.9358,5.06 2.3499,8.7074 4.2821,10.9212 1.3283,1.6602 4.0837,3.2512 8.2498,4.7534 4.166,1.5022 6.864,2.278 8.1319,2.3571 l 0,8.4462 -51.8559,0 0,-8.4462 c 2.717,-0.3162 5.5362,-0.8981 8.5248,-1.7678 2.9887,-0.8697 5.3231,-2.1891 6.9534,-3.9285 2.1132,-2.2138 3.5364,-5.5891 4.3213,-10.1748 0.7849,-4.5856 1.1785,-12.2684 1.1785,-23.0209 l 0,-86.1123 c 0,-4.9808 -0.43,-9.0156 -1.3356,-12.1783 -0.9057,-3.1622 -2.1986,-5.7623 -3.8892,-7.739 -1.8717,-2.1346 -4.1971,-3.6862 -6.9141,-4.7142 -2.717,-1.0277 -5.3968,-1.6488 -8.0534,-1.8071 l 0,-8.4069 z m 300.7644,0 56.1773,0 c 7.7282,10e-5 15.3376,1.552 22.8245,4.6748 7.4867,3.1232 14.009,7.3527 19.5638,12.6497 7.5471,7.0367 13.4305,16.2324 17.7174,27.6173 4.2867,11.385 6.4425,24.7713 6.4427,40.1883 -2e-4,14.3103 -2.0622,26.7267 -6.1677,37.242 -4.1057,10.5153 -9.4472,19.1291 -16.0282,25.8494 -6.6416,6.7202 -14.0814,11.7648 -22.353,15.0853 -8.2718,3.3207 -16.7986,4.9892 -25.6137,4.9892 l -53.2701,0 0,-8.4462 c 1.7509,0 4.0279,-0.1938 6.8354,-0.6286 2.8076,-0.4348 4.6728,-0.9393 5.5786,-1.4928 1.8112,-1.0278 3.1132,-2.5409 3.9284,-4.5571 0.815,-2.016 1.2178,-4.4607 1.2178,-7.3069 l 0,-121.4293 c 0,-2.6879 -0.3271,-5.0936 -1.0214,-7.2284 -0.6943,-2.1346 -2.0721,-3.8418 -4.1248,-5.107 -1.8718,-1.1858 -3.9157,-2.0785 -6.0892,-2.6322 -2.1736,-0.5532 -4.048,-0.9023 -5.6178,-1.0606 l 0,-8.4069 z m 138.7539,0 59.3201,0 c 5.4339,10e-5 10.5511,0.7374 15.321,2.1999 4.7697,1.4628 9.0997,3.7906 12.9641,7.0319 3.7432,3.1627 6.7228,7.3147 8.9569,12.414 2.2338,5.0998 3.339,11.2301 3.3392,18.4247 -2e-4,6.4832 -0.7693,12.2259 -2.2786,17.2067 -1.5095,4.9809 -3.72,9.2879 -6.6784,12.9246 -2.7171,3.3998 -5.9782,6.3487 -9.7818,8.8392 -3.8039,2.4905 -8.0219,4.5856 -12.6105,6.3248 6.3395,10.9897 11.6355,20.2635 15.8317,27.7744 4.1963,7.5109 9.3407,16.629 15.439,27.3814 2.6565,4.7437 5.0455,8.2359 7.1891,10.4891 2.1433,2.2533 4.2901,4.1161 6.4034,5.5391 1.5697,1.0278 3.4986,1.8037 5.8534,2.3571 2.3547,0.5535 4.3228,0.8638 5.8929,0.9429 l 0,8.4462 -34.5707,0 c -7.668,-15.7334 -14.593,-29.3528 -20.7817,-40.8169 -6.1888,-11.464 -12.9079,-23.2593 -20.1532,-35.4349 l -13.1603,0 0,53.3487 c 0,2.7672 0.3572,5.2119 1.0214,7.307 0.6641,2.0952 2.0691,3.6859 4.2428,4.7928 1.0867,0.5535 2.9792,1.0577 5.6962,1.5321 2.717,0.4743 5.0032,0.7459 6.8749,0.825 l 0,8.4462 -54.3309,0 0,-8.4462 c 1.449,-0.1582 3.5384,-0.4297 6.2855,-0.825 2.7472,-0.3953 4.6882,-0.8996 5.775,-1.5321 1.8112,-1.0279 3.1133,-2.5412 3.9284,-4.5177 0.8152,-1.9766 1.2178,-4.4986 1.2179,-7.5821 l 0,-121.6649 c -1e-4,-2.767 -0.2998,-5.2115 -0.9036,-7.3463 -0.6038,-2.1345 -2.0088,-3.7643 -4.2427,-4.8713 -1.5095,-0.7114 -3.4777,-1.3712 -5.8928,-1.9643 -2.4151,-0.5927 -4.4772,-0.9809 -6.1677,-1.1392 l 0,-8.4069 z m 128.3435,0 57.8664,0 0,8.4069 c -1.8717,0.079 -4.1214,0.3897 -6.7176,0.9035 -2.5964,0.514 -4.825,1.1738 -6.757,1.9642 -2.2944,0.9489 -3.8508,2.4619 -4.6356,4.5964 -0.785,2.1349 -1.1786,4.5409 -1.1786,7.1499 l 0,121.7828 c 0,2.6091 0.4209,4.898 1.2965,6.9142 0.8753,2.016 2.4045,3.646 4.5177,4.8319 1.2679,0.6326 3.2998,1.3311 6.1678,2.0822 2.8678,0.751 5.3144,1.1387 7.3068,1.2178 l 0,8.4462 -57.8664,0 0,-8.4462 c 1.6302,-0.1582 3.9919,-0.3909 7.0712,-0.7072 3.0792,-0.3161 5.2534,-0.7816 6.5213,-1.4142 1.9924,-1.0278 3.4157,-2.4246 4.3213,-4.2034 0.9057,-1.779 1.3749,-4.2624 1.3751,-7.4249 l 0,-121.9007 c -2e-4,-2.767 -0.3181,-5.0953 -0.9822,-6.9535 -0.6642,-1.8577 -2.2387,-3.4096 -4.7142,-4.6748 -1.8114,-0.9486 -4.0884,-1.841 -6.8356,-2.6714 -2.7471,-0.83 -5.006,-1.3345 -6.7569,-1.4928 l 0,-8.4069 z m 74.5232,0 56.1773,0 c 7.7281,10e-5 15.3376,1.552 22.8244,4.6748 7.4868,3.1232 13.9697,7.3527 19.5245,12.6497 7.5471,7.0367 13.4699,16.2324 17.7568,27.6173 4.2867,11.385 6.4425,24.7713 6.4427,40.1883 -2e-4,14.3103 -2.0622,26.7267 -6.1677,37.242 -4.1057,10.5153 -9.4472,19.1291 -16.0282,25.8494 -6.6416,6.7202 -14.0814,11.7648 -22.353,15.0853 -8.2718,3.3207 -16.838,4.9892 -25.653,4.9892 l -53.2308,0 0,-8.4462 c 1.7509,0 4.0279,-0.1938 6.8354,-0.6286 2.8076,-0.4348 4.6728,-0.9393 5.5786,-1.4928 1.8112,-1.0278 3.1132,-2.5409 3.9284,-4.5571 0.815,-2.016 1.2178,-4.4607 1.2178,-7.3069 l 0,-121.4293 c 0,-2.6879 -0.3271,-5.0936 -1.0214,-7.2284 -0.6943,-2.1346 -2.0721,-3.8418 -4.1248,-5.107 -1.8718,-1.1858 -3.9157,-2.0785 -6.0893,-2.6322 -2.1735,-0.5532 -4.0479,-0.9023 -5.6177,-1.0606 l 0,-8.4069 z m -892.2364,9.5855 c -2.4755,10e-5 -5.2582,0.078 -8.3676,0.1963 -3.1094,0.1182 -5.444,0.2354 -6.9534,0.3143 l 0,129.3649 c 0,7.1946 1.5927,12.1611 4.7927,14.9282 3.2,2.7672 8.1295,4.1642 14.7711,4.1642 7.6679,0 14.378,-1.785 20.1138,-5.3427 5.7359,-3.5579 10.3838,-8.4854 13.9462,-14.8104 3.7433,-6.6413 6.4896,-14.3237 8.2104,-23.0602 1.7208,-8.7363 2.5535,-18.8637 2.5536,-30.3278 -1e-4,-11.3059 -1.1236,-21.5104 -3.4178,-30.6422 -2.2944,-9.1316 -5.6495,-17.0856 -10.0569,-23.8851 -4.1661,-6.4831 -9.2925,-11.6051 -15.3603,-15.3211 -6.068,-3.7158 -12.8054,-5.5783 -20.2318,-5.5784 z m 602.079,0 c -2.4757,10e-5 -5.2584,0.078 -8.3678,0.1963 -3.1094,0.1182 -5.444,0.2354 -6.9534,0.3143 l 0,129.3649 c 0,7.1946 1.5927,12.1611 4.7928,14.9282 3.1999,2.7672 8.1295,4.1642 14.7711,4.1642 7.6678,0 14.3779,-1.785 20.1138,-5.3427 5.7358,-3.5579 10.3837,-8.4854 13.9461,-14.8104 3.7433,-6.6413 6.4897,-14.3237 8.2106,-23.0602 1.7206,-8.7363 2.5533,-18.8637 2.5534,-30.3278 -1e-4,-11.3059 -1.1236,-21.5104 -3.4178,-30.6422 -2.2944,-9.1316 -5.6494,-17.0856 -10.0569,-23.8851 -4.1661,-6.4831 -9.2925,-11.6051 -15.3603,-15.3211 -6.068,-3.7158 -12.8054,-5.5783 -20.2316,-5.5784 z m 123.7863,0 0,72.2446 11.864,0 c 8.332,2e-4 15.3055,-3.4918 20.8603,-10.4889 5.5546,-6.997 8.3283,-16.5033 8.3284,-28.5208 -1e-4,-10.199 -2.25,-18.3087 -6.7178,-24.278 -4.468,-5.9692 -10.7844,-8.9568 -18.9353,-8.9569 l -15.3996,0 z m 217.8343,0 c -2.4757,10e-5 -5.2976,0.078 -8.4071,0.1963 -3.1095,0.1182 -5.4047,0.2354 -6.9141,0.3143 l 0,129.3649 c 0,7.1946 1.5927,12.1611 4.7928,14.9282 3.1999,2.7672 8.1295,4.1642 14.7711,4.1642 7.6678,0 14.3779,-1.785 20.1138,-5.3427 5.7357,-3.5579 10.3837,-8.4854 13.9461,-14.8104 3.7433,-6.6413 6.4897,-14.3237 8.2106,-23.0602 1.7206,-8.7363 2.5533,-18.8637 2.5534,-30.3278 -10e-5,-11.3059 -1.1236,-21.5104 -3.4178,-30.6422 -2.2944,-9.1316 -5.6494,-17.0856 -10.0569,-23.8851 -4.1661,-6.4831 -9.2925,-11.6051 -15.3603,-15.3211 -6.068,-3.7158 -12.8054,-5.5783 -20.2316,-5.5784 z m -469.4927,24.6708 -19.1318,65.252 38.5778,0 -19.446,-65.252 z"
       id="path3007"
       inkscape:connector-curvature="0" />
  </g>
</svg>
